<svg xmlns="http://www.w3.org/2000/svg" width="375" height="375" version="1.0"><defs><clipPath id="a"><path d="M25.387 56.191H56.93V94H25.387zm0 0"/></clipPath><clipPath id="b"><path d="M25.387 56.191H56.93v38.157H25.387zm0 0"/></clipPath><clipPath id="c"><path d="M48 56.191h8.93V64H48zm0 0"/></clipPath><clipPath id="d"><path d="M48 56.191h8.93V65H48zm0 0"/></clipPath><clipPath id="e"><path d="M127.402 70H141v23.82h-13.598zm0 0"/></clipPath><clipPath id="f"><path d="M138 59.734h20V83h-20zm0 0"/></clipPath><clipPath id="g"><path d="M141 70h20.488v23.82H141zm0 0"/></clipPath><clipPath id="h"><path d="M239 59.734h13V93.82h-13zm0 0"/></clipPath><clipPath id="i"><path d="M325.574 59.426h24.418v35.558h-24.418zm0 0"/></clipPath></defs><g clip-path="url(#a)"><path fill="#FF8850" d="M48.89 56.633H25.759v37.289h30.785V63.949l-7.652-7.316"/></g><g clip-path="url(#b)"><path d="M48.89 56.633v-.367H25.759a.368.368 0 0 0-.363.367v37.289c0 .098.039.191.105.258a.38.38 0 0 0 .258.105h30.785a.367.367 0 0 0 .367-.363V63.949a.367.367 0 0 0-.113-.261l-7.652-7.32a.367.367 0 0 0-.254-.102v.367l-.254.262 7.539 7.21v29.45H26.125V56.996h22.766v-.363l-.254.262.254-.262"/></g><g clip-path="url(#c)"><path fill="#FF8850" d="M48.89 56.633v7.316h7.653zm0 0"/></g><g clip-path="url(#d)"><path d="M48.89 56.633h-.367v7.316c0 .098.04.192.11.258.066.07.16.11.258.11h7.652a.37.37 0 0 0 .34-.231.362.362 0 0 0-.086-.398l-7.652-7.32a.365.365 0 0 0-.399-.071.364.364 0 0 0-.223.336h.368l-.254.262 6.996 6.69h-6.375v-6.952h-.367l-.254.262.254-.262"/></g><path fill="none" d="M17.875 123.102v-2.489H13.21v-2.453l2.96-10.804h4.91v10.64h.844v2.617h-.843v2.489zm-1.864-5.106h1.864v-7.926zm10.907 5.106v-2.489h-4.664v-2.453l2.96-10.804h4.91v10.64h.844v2.617h-.843v2.489zm-1.864-5.106h1.864v-7.926zm10.598 5.324c-1.258 0-2.258-.308-3.004-.922-.746-.617-1.117-1.53-1.117-2.738v-2.324h3.277v1.336c0 .539.055.96.164 1.266.11.304.336.457.68.457.316 0 .531-.102.648-.309.118-.207.176-.516.176-.922v-3.09c0-.504-.054-.902-.156-1.199-.106-.3-.32-.453-.648-.453-.602 0-.899.434-.899 1.3h-2.875v-8.366h7.484v2.949h-4.5v2.218c.16-.207.372-.378.641-.515.27-.133.574-.2.914-.2 1.32 0 2.219.465 2.703 1.391.48.926.723 2.239.723 3.938 0 1.402-.102 2.543-.305 3.414-.199.87-.605 1.55-1.215 2.039-.609.488-1.507.73-2.691.73zm9.5-.218v-15.723h3.11v6.297l1.468-6.297h3.164l-1.758 7.191 2.125 8.532H50l-1.72-7.614v7.614zm11.879.148c-1.133 0-1.98-.398-2.54-1.2-.55-.8-.827-2.01-.827-3.636v-6.77c0-1.456.32-2.554.968-3.296.645-.742 1.61-1.117 2.891-1.117 1.04 0 1.844.207 2.414.62.574.415.973 1.02 1.195 1.817.22.793.329 1.813.329 3.055h-3.075v-1.41c0-.38-.05-.672-.156-.875-.105-.211-.289-.313-.558-.313-.598 0-.899.387-.899 1.168v7.617c0 .477.063.836.184 1.082.12.246.336.367.644.367.301 0 .516-.12.637-.367.125-.246.184-.605.184-1.082v-2.254h-.84v-2.707h3.843v9.153H60.16l-.531-1.317c-.559.977-1.426 1.465-2.598 1.465zm9.371 0c-1.426 0-2.457-.352-3.094-1.059-.633-.71-.953-1.851-.953-3.43v-1.534h3.094v1.957c0 .78.25 1.175.75 1.175.281 0 .476-.082.586-.246.113-.168.168-.445.168-.836 0-.511-.063-.937-.184-1.27a2.895 2.895 0 0 0-.469-.843c-.187-.226-.527-.578-1.015-1.055l-1.356-1.355c-1.047-1.023-1.574-2.16-1.574-3.406 0-1.34.309-2.36.926-3.063.617-.703 1.52-1.054 2.7-1.054 1.417 0 2.437.375 3.058 1.128.62.75.933 1.922.933 3.52H66.77l-.02-1.082a.706.706 0 0 0-.171-.492c-.117-.121-.278-.18-.485-.18-.246 0-.425.066-.55.2-.121.132-.184.316-.184.55 0 .512.293 1.043.879 1.59l1.832 1.758c.426.418.777.812 1.059 1.183.28.371.507.813.68 1.32.167.505.253 1.106.253 1.801 0 1.547-.281 2.723-.848 3.524-.566.8-1.503 1.199-2.812 1.199zm0 0" stroke="#FF8850" stroke-width=".687"/><path fill="none" d="M26.743 132.378h2.945c.894 0 1.531.286 1.91.864.383.574.574 1.418.574 2.527 0 1.11-.168 1.945-.508 2.508-.336.562-.941.844-1.816.844h-.91v4.422h-2.195zm2.324 4.727c.27 0 .465-.05.59-.148a.692.692 0 0 0 .25-.43c.035-.184.054-.453.054-.797 0-.469-.05-.805-.156-1.016-.102-.207-.309-.308-.621-.308h-.246v2.699zm5.496 6.54c-.735 0-1.242-.243-1.512-.731-.273-.493-.41-1.192-.41-2.102 0-.746.098-1.316.293-1.715.191-.398.465-.691.812-.879.344-.183.875-.39 1.586-.617l.621-.207v-.976c0-.25-.05-.442-.148-.575-.102-.136-.219-.203-.355-.203a.395.395 0 0 0-.32.168c-.095.113-.137.262-.137.453v.57h-2.211v-.308c0-.938.218-1.602.66-2 .437-.398 1.148-.602 2.136-.602.79 0 1.426.207 1.922.622.493.41.743.992.743 1.746v7.254H35.98v-1.133c-.113.39-.293.695-.543.914-.242.215-.535.32-.875.32zm.898-1.767c.172 0 .297-.07.367-.21a1.16 1.16 0 0 0 .114-.532v-2.648c-.336.129-.586.293-.746.492-.16.2-.243.477-.243.828v1.223c0 .566.168.847.508.847zm3.649-7.851h2.316v.504c.328-.406.785-.61 1.367-.61.735 0 1.246.25 1.54.743.288.496.433 1.18.433 2.054v3.524c0 .742-.043 1.351-.129 1.824-.09.473-.277.852-.574 1.144-.293.29-.738.434-1.336.434-.574 0-1.008-.16-1.3-.48v2.273H39.11zm2.86 7.851c.21 0 .343-.093.401-.285.063-.191.094-.472.094-.836v-4.039c0-.328-.031-.582-.094-.754-.058-.175-.195-.261-.414-.261-.355 0-.53.328-.53.988v4.172c0 .32.034.57.109.75.074.176.218.265.433.265zm6.304 1.766c-.98 0-1.68-.266-2.106-.805-.425-.535-.636-1.34-.636-2.406v-3.82c0-.875.25-1.543.753-2 .504-.461 1.208-.692 2.106-.692 1.828 0 2.742.899 2.742 2.692v.691c0 .692-.008 1.254-.023 1.688h-3.301v1.843c0 .333.031.59.102.778.07.183.218.277.44.277.177 0 .298-.05.372-.156a.687.687 0 0 0 .129-.356c.012-.132.02-.332.02-.59v-.925h2.261v.547c0 1.11-.215 1.925-.644 2.449-.426.523-1.164.785-2.215.785zm.597-5.781v-1.223c0-.687-.168-1.027-.503-1.027-.383 0-.575.34-.575 1.027v1.223zm3.079-3.836h2.277v1.055c.113-.375.309-.664.59-.868.281-.203.633-.304 1.047-.304v1.898c-.32 0-.672.047-1.059.137-.387.09-.578.195-.578.316v7.282H51.95zm0 0" stroke="#FF8850" stroke-width=".488"/><g clip-path="url(#e)"><path fill="#FF8850" d="M129 93.02h7.457c.16 0 .32-.079.426-.211l3.832-5.059V83.7h-1.063c-.8 0-1.52-.345-1.996-.903a1.229 1.229 0 0 1-.16-.215l-.027-.027c-.055-.078-.082-.133-.133-.211 0 0 0-.028-.027-.028-.055-.078-.079-.16-.133-.238l-.985 1.356H129l9.16-12.036a.43.43 0 0 1 .215-.16l.852-1.117h-.641c-.504 0-.957.238-1.277.64l-9.801 12.887c-.051.106-.106.211-.106.32v7.454c0 .879.72 1.598 1.598 1.598zm-.531-8.52h7.453v7.457H129a.535.535 0 0 1-.531-.535zm0 0"/></g><g clip-path="url(#f)"><path fill="#FF8850" d="M138.16 73.262a.531.531 0 0 0-.105.32v7.457c0 .879.718 1.598 1.597 1.598h7.453a.57.57 0 0 0 .43-.215l9.903-13.02c.214-.265.32-.613.32-.96v-7.11c0-.879-.719-1.598-1.598-1.598h-6.922c-.508 0-.96.243-1.277.641l-9.8 12.887zm10.653-12.246a.556.556 0 0 1 .425-.215h6.79l-9.188 12.25h-7.188zm-9.696 13.097h7.457v7.457h-6.922a.535.535 0 0 1-.535-.53zm0 0"/></g><g clip-path="url(#g)"><path fill="#FF8850" d="M159.887 70.918h-2.262l-.797 1.066h2.953l-9.21 12.25h-7.192l.398-.535h-1.328l-.562.746a.693.693 0 0 0-.106.32v7.458c0 .879.719 1.597 1.598 1.597h7.457c.16 0 .32-.082.426-.215l9.906-13.02c.21-.265.316-.612.316-.96v-7.11c0-.878-.718-1.597-1.597-1.597zM150.3 92.754h-6.922a.532.532 0 0 1-.531-.531v-6.926h7.453zm0 0"/></g><path fill="none" d="M124.988 119.707c-1.074 0-1.922-.183-2.547-.55-.617-.367-1.059-.914-1.316-1.649-.258-.734-.387-1.683-.387-2.855v-4.246c0-1.625.101-2.903.304-3.836.204-.934.614-1.645 1.235-2.14.62-.497 1.555-.743 2.8-.743a4.98 4.98 0 0 1 1.887.348c.575.23 1.032.578 1.371 1.043.344.464.516 1.027.516 1.683v1.703h-3.039v-.328c0-.539-.047-.953-.14-1.242-.087-.297-.305-.445-.645-.445-.344 0-.586.093-.727.277-.14.184-.21.461-.21.84v3.172c.148-.297.37-.528.675-.692a2.268 2.268 0 0 1 1.082-.246c.856 0 1.516.172 1.985.516.472.34.796.848.98 1.52.184.671.277 1.546.277 2.632 0 1.672-.32 2.965-.953 3.875-.636.91-1.683 1.363-3.148 1.363zm-.11-2.89c.329 0 .54-.133.63-.395.093-.265.14-.695.14-1.293v-1.261c0-.856-.246-1.286-.734-1.286-.547 0-.825.372-.825 1.118v1.941c0 .781.266 1.176.79 1.176zm8.954 2.89c-1.332 0-2.36-.375-3.082-1.125-.715-.753-1.075-1.824-1.075-3.214v-7.102c0-1.492.348-2.625 1.04-3.406.699-.781 1.738-1.172 3.117-1.172 1.39 0 2.433.39 3.128 1.172.696.781 1.043 1.914 1.043 3.406v7.102c0 1.402-.359 2.476-1.078 3.222-.722.746-1.754 1.117-3.093 1.117zm0-2.89c.23 0 .421-.11.566-.324a1.32 1.32 0 0 0 .219-.758v-7.766c0-.449-.051-.793-.157-1.031-.105-.238-.312-.36-.628-.36-.32 0-.528.122-.625.36-.098.238-.145.582-.145 1.031v7.766c0 .293.07.543.21.758.142.214.325.324.56.324zm9.5 2.742v-15.723h3.109v6.297l1.465-6.297h3.168l-1.758 7.192 2.121 8.531h-3.258l-1.719-7.617v7.617zm11.878.148c-1.136 0-1.98-.398-2.539-1.199-.554-.8-.832-2.011-.832-3.636v-6.774c0-1.453.325-2.55.973-3.293.645-.746 1.61-1.117 2.89-1.117 1.036 0 1.84.207 2.415.621.574.414.972 1.02 1.191 1.816.223.793.332 1.813.332 3.055h-3.074v-1.41c0-.379-.055-.672-.156-.875-.106-.21-.293-.316-.559-.316-.601 0-.898.39-.898 1.171v7.618c0 .476.058.836.183 1.082.121.242.336.367.64.367.306 0 .52-.125.641-.367.122-.246.184-.606.184-1.082v-2.254h-.84v-2.707h3.844v9.152h-1.266l-.53-1.316c-.563.976-1.427 1.464-2.599 1.464zm9.372 0c-1.43 0-2.461-.351-3.094-1.058-.637-.711-.953-1.852-.953-3.43v-1.535h3.093v1.957c0 .781.25 1.176.75 1.176.282 0 .477-.082.586-.246.11-.168.164-.446.164-.836 0-.512-.058-.938-.183-1.27a2.726 2.726 0 0 0-.469-.843c-.187-.227-.523-.579-1.012-1.055l-1.355-1.356c-1.05-1.027-1.574-2.16-1.574-3.406 0-1.34.308-2.363.925-3.062.618-.703 1.516-1.055 2.7-1.055 1.414 0 2.433.375 3.058 1.125.621.754.934 1.926.934 3.523h-3.207l-.016-1.082a.69.69 0 0 0-.176-.492c-.113-.12-.277-.183-.48-.183-.246 0-.43.07-.55.203-.122.133-.184.316-.184.55 0 .512.293 1.043.875 1.59l1.832 1.758c.43.414.78.813 1.062 1.184.281.37.508.812.68 1.316.168.508.254 1.11.254 1.805 0 1.547-.285 2.722-.852 3.523-.566.801-1.5 1.2-2.808 1.2zm0 0" stroke="#FF8850" stroke-width=".687"/><path fill="none" d="M110.176 139.996v-11.16h3.406l.938 6.808.934-6.808h3.433v11.16h-2.043v-8.043l-1.289 8.043h-1.996l-1.367-8.043v8.043zm12.34.106c-.98 0-1.68-.266-2.105-.805-.426-.54-.637-1.34-.637-2.406v-3.82c0-.876.25-1.544.754-2 .504-.462 1.207-.692 2.105-.692 1.828 0 2.742.898 2.742 2.691v.688c0 .695-.007 1.258-.023 1.691h-3.3v1.844c0 .332.03.59.1.777.071.184.22.278.442.278.176 0 .297-.051.371-.157a.7.7 0 0 0 .13-.355c.01-.133.019-.332.019-.594v-.922h2.261v.547c0 1.106-.214 1.926-.644 2.45-.426.523-1.164.785-2.215.785zm.598-5.786v-1.218c0-.688-.168-1.032-.504-1.032-.383 0-.574.344-.574 1.032v1.218zm5.062 5.786c-.597 0-1.011-.125-1.238-.375-.223-.254-.336-.657-.336-1.211v-5.942h-.633v-1.726h.633v-2.012h2.211v2.012h.648v1.726h-.648v5.344c0 .164.016.285.039.363.027.078.094.117.207.117.086 0 .168-.004.246-.011.078-.008.133-.012.156-.012v1.559c-.128.035-.316.07-.562.109-.25.039-.488.059-.723.059zm3.75 0c-.738 0-1.242-.243-1.515-.73-.274-.493-.407-1.192-.407-2.103 0-.746.094-1.316.29-1.714.195-.399.464-.692.812-.88.348-.183.875-.39 1.586-.616l.625-.207v-.977c0-.25-.05-.441-.152-.574-.098-.137-.215-.203-.356-.203-.121 0-.226.054-.32.168a.704.704 0 0 0-.137.453v.57h-2.207v-.309c0-.937.219-1.601.656-2 .438-.402 1.153-.601 2.14-.601.786 0 1.427.207 1.919.621.496.41.742.992.742 1.742v7.254h-2.258v-1.129c-.113.39-.297.695-.543.91-.246.22-.539.325-.875.325zm.899-1.766c.172 0 .297-.07.367-.215.074-.14.11-.32.11-.527v-2.653c-.337.13-.583.297-.747.496-.16.2-.238.477-.238.829v1.222c0 .567.168.848.508.848zm3.668 1.66V128.77h2.312v11.227zm8.113.133c-.668 0-1.176-.238-1.523-.715-.348-.477-.52-1.098-.52-1.86 0-.847.121-1.53.363-2.046.242-.516.625-.969 1.145-1.36-.426-.828-.637-1.55-.637-2.156 0-.633.203-1.129.613-1.488.414-.36.946-.54 1.594-.54.64 0 1.168.173 1.582.513.41.343.617.82.617 1.437 0 .898-.496 1.746-1.492 2.535l.402.95c.243-.641.606-1.141 1.09-1.497l.883 1.38c-.512.398-.926 1.058-1.246 1.976l1.129 2.738h-2.156l-.235-.61c-.18.216-.414.395-.695.536a2.064 2.064 0 0 1-.914.207zm1.27-7.293c.09-.094.167-.23.238-.41.066-.176.101-.348.101-.512 0-.262-.125-.39-.375-.39a.307.307 0 0 0-.25.109.44.44 0 0 0-.09.281c0 .227.09.57.274 1.04zm-.922 5.668a.53.53 0 0 0 .414-.188.885.885 0 0 0 .222-.437l-.765-1.844-.078.117c-.07.102-.125.27-.172.496-.04.223-.063.442-.063.66v.067c0 .336.028.61.078.816.051.207.172.313.364.313zm10.175 1.598c-1.011 0-1.746-.25-2.195-.75-.45-.504-.676-1.317-.676-2.434v-1.094h2.196v1.39c0 .56.18.837.535.837.195 0 .336-.059.414-.176.078-.117.117-.316.117-.594 0-.363-.043-.664-.129-.902a1.91 1.91 0 0 0-.336-.598c-.133-.16-.37-.41-.719-.75l-.96-.96c-.747-.727-1.118-1.536-1.118-2.419 0-.953.219-1.675.657-2.172.437-.5 1.078-.75 1.918-.75 1.003 0 1.726.266 2.167.801.446.531.665 1.363.665 2.5h-2.274l-.016-.77a.484.484 0 0 0-.12-.347.459.459 0 0 0-.344-.133c-.172 0-.305.051-.391.145a.561.561 0 0 0-.129.39c0 .364.207.739.621 1.13l1.301 1.245c.305.297.555.578.754.844.2.262.36.574.48.934.121.36.18.785.18 1.281 0 1.098-.2 1.934-.602 2.504-.402.566-1.066.848-1.996.848zm5.286 0c-.598 0-1.012-.125-1.239-.375-.222-.254-.336-.657-.336-1.211v-5.942h-.636v-1.726h.636v-2.012h2.211v2.012h.649v1.726h-.649v5.344c0 .164.012.285.04.363.023.078.093.117.206.117.086 0 .168-.004.246-.011.079-.008.13-.012.157-.012v1.559c-.13.035-.317.07-.567.109a4.611 4.611 0 0 1-.718.059zm4.683 0c-.98 0-1.68-.266-2.105-.805-.426-.54-.637-1.34-.637-2.406v-3.82c0-.876.25-1.544.754-2 .504-.462 1.203-.692 2.105-.692 1.828 0 2.743.898 2.743 2.691v.688c0 .695-.008 1.258-.028 1.691h-3.297v1.844c0 .332.032.59.102.777.07.184.215.278.441.278.176 0 .297-.051.371-.157a.7.7 0 0 0 .13-.355c.011-.133.019-.332.019-.594v-.922h2.262v.547c0 1.106-.215 1.926-.645 2.45-.426.523-1.164.785-2.215.785zm.598-5.786v-1.218c0-.688-.168-1.032-.504-1.032-.383 0-.574.344-.574 1.032v1.218zm5.765 5.786c-.98 0-1.683-.266-2.109-.805-.422-.54-.633-1.34-.633-2.406v-3.82c0-.876.25-1.544.75-2 .504-.462 1.207-.692 2.11-.692 1.828 0 2.742.898 2.742 2.691v.688c0 .695-.012 1.258-.028 1.691h-3.3v1.844c0 .332.035.59.101.777.07.184.219.278.446.278.171 0 .296-.051.367-.157a.7.7 0 0 0 .129-.355c.015-.133.02-.332.02-.594v-.922h2.265v.547c0 1.106-.215 1.926-.645 2.45-.43.523-1.168.785-2.215.785zm.594-5.786v-1.218c0-.688-.168-1.032-.504-1.032-.383 0-.574.344-.574 1.032v1.218zm3.102 5.68V128.77h2.312v11.227zm0 0" stroke="#FF8850" stroke-width=".488"/><g clip-path="url(#h)"><path fill="#FF8850" d="M243.492 59.734a.306.306 0 0 0-.304.309v2.266h4.628v-2.266a.303.303 0 0 0-.3-.309zm.121 3.305c.32 2.797-3.718 5.594-3.785 8.598h11.356c-.067-3.004-4.102-5.801-3.782-8.598zm-3.46 9.57v7.157h10.699v-7.157zm.226 8.368c-.164 0-.387.156-.234.472.605 1.25.761 2.496.75 3.883-.024 2.172-2 7.992 1.261 8.242 1.18.09 1.473-1.05 1.824-1.062.36-.012.543 1.062 1.528 1.062.98 0 1.164-1.074 1.523-1.062.352.011.672 1.32 1.828 1.062 3.68-.82 1.254-6.015 1.262-8.242.004-1.387.145-2.633.746-3.883.153-.316-.07-.472-.234-.472zm0 0"/></g><path fill="none" d="M221.511 119.743c-1.379 0-2.387-.364-3.02-1.086-.636-.727-.953-1.836-.953-3.325v-1.648h3.223v1.648c0 .477.062.844.184 1.11.12.262.367.39.734.39.254 0 .441-.09.555-.273.113-.184.183-.402.207-.652.027-.25.043-.614.043-1.09v-.383c0-1.355-.446-2.035-1.34-2.035-.16 0-.262.008-.313.023v-2.82c.567 0 .985-.125 1.266-.375s.422-.648.422-1.2c0-.89-.258-1.335-.77-1.335-.32 0-.523.078-.617.238-.09.156-.148.36-.184.602-.03.246-.05.422-.062.531v.477h-3.258l-.02-.551c.012-1.442.356-2.496 1.024-3.176.676-.676 1.707-1.016 3.098-1.016 2.676 0 4.011 1.395 4.011 4.192 0 .82-.113 1.468-.332 1.953-.218.48-.597.816-1.136 1.015.441.22.77.493.98.817.215.32.356.715.422 1.18.066.46.102 1.082.102 1.863 0 1.625-.34 2.851-1.02 3.683-.676.829-1.758 1.243-3.246 1.243zm9.246-.036c-1.332 0-2.36-.375-3.082-1.125-.719-.753-1.074-1.824-1.074-3.214v-7.102c0-1.492.344-2.625 1.039-3.406.7-.781 1.734-1.172 3.117-1.172 1.39 0 2.434.39 3.129 1.172.695.781 1.043 1.914 1.043 3.406v7.102c0 1.402-.36 2.476-1.082 3.222-.719.746-1.75 1.117-3.09 1.117zm0-2.89c.23 0 .422-.11.566-.324a1.32 1.32 0 0 0 .22-.758v-7.766c0-.449-.052-.793-.157-1.031-.105-.238-.313-.36-.629-.36-.32 0-.527.122-.629.36-.094.238-.14.582-.14 1.031v7.766c0 .293.07.543.21.758.137.214.325.324.56.324zm9.043 2.89c-1.332 0-2.36-.375-3.082-1.125-.719-.753-1.078-1.824-1.078-3.214v-7.102c0-1.492.348-2.625 1.043-3.406.7-.781 1.734-1.172 3.117-1.172 1.39 0 2.434.39 3.125 1.172.7.781 1.047 1.914 1.047 3.406v7.102c0 1.402-.36 2.476-1.082 3.222-.719.746-1.75 1.117-3.09 1.117zm0-2.89c.23 0 .418-.11.566-.324a1.32 1.32 0 0 0 .22-.758v-7.766c0-.449-.052-.793-.157-1.031-.106-.238-.316-.36-.629-.36-.32 0-.527.122-.629.36-.094.238-.14.582-.14 1.031v7.766c0 .293.07.543.21.758.137.214.325.324.559.324zm9.496-12.98h4.152c1.258 0 2.157.406 2.692 1.214.539.813.808 2 .808 3.563 0 1.562-.238 2.738-.714 3.531-.477.793-1.328 1.187-2.559 1.187h-1.285v6.227h-3.094zm3.277 6.66c.38 0 .657-.07.833-.211a.965.965 0 0 0 .347-.602c.055-.266.082-.64.082-1.129 0-.656-.074-1.133-.219-1.426-.148-.293-.437-.437-.875-.437h-.351v3.805zm9.024 9.21c-1.145 0-2.066-.359-2.758-1.082-.687-.718-1.031-1.707-1.031-2.964v-7.246c0-1.567.312-2.747.933-3.54.625-.789 1.598-1.187 2.93-1.187 1.156 0 2.09.316 2.797.953.711.633 1.063 1.55 1.063 2.742v2.711h-3.13v-2.324c0-.45-.054-.762-.163-.93-.11-.172-.301-.261-.567-.261-.281 0-.473.101-.578.296-.105.196-.156.48-.156.86v7.887c0 .418.062.722.183.914.121.187.305.28.551.28.488 0 .73-.398.73-1.194v-2.836h3.172v2.964c0 2.637-1.324 3.957-3.976 3.957zm8.75 0c-1.43 0-2.457-.351-3.094-1.058-.633-.711-.953-1.852-.953-3.43v-1.535h3.094v1.957c0 .781.25 1.176.75 1.176.281 0 .476-.082.586-.246.11-.168.168-.446.168-.836 0-.512-.063-.938-.184-1.27a2.895 2.895 0 0 0-.469-.843 16.99 16.99 0 0 0-1.015-1.055l-1.356-1.356c-1.047-1.027-1.574-2.16-1.574-3.406 0-1.34.309-2.363.926-3.062.617-.703 1.515-1.055 2.7-1.055 1.417 0 2.437.375 3.058 1.125.62.754.933 1.926.933 3.523h-3.203l-.02-1.082a.69.69 0 0 0-.175-.492c-.113-.12-.274-.183-.48-.183-.247 0-.43.07-.551.203-.122.133-.184.316-.184.55 0 .512.293 1.043.879 1.59l1.832 1.758c.426.414.777.813 1.058 1.184.282.37.508.812.68 1.316.168.508.254 1.11.254 1.805 0 1.547-.285 2.722-.848 3.523-.566.801-1.503 1.2-2.812 1.2zm0 0" stroke="#FF8850" stroke-width=".687"/><path fill="none" d="M227.414 128.836h3.027c.817 0 1.406.2 1.774.594.37.398.554 1.047.554 1.949v.496c0 1.066-.383 1.703-1.144 1.91.468.121.797.402.988.844.191.441.285 1.027.285 1.754 0 1.187-.176 2.086-.531 2.699-.356.61-.996.914-1.926.914h-3.027zm2.636 4.195c.192 0 .32-.07.391-.215.07-.144.106-.343.106-.601v-1.121c0-.364-.16-.547-.48-.547h-.47v2.484zm-.234 5.004c.582 0 .875-.277.875-.832v-1.39c0-.34-.05-.594-.152-.766-.098-.172-.274-.258-.524-.258h-.418v3.23zm6.574 2.067c-1.898 0-2.847-.985-2.847-2.95v-3.82c0-.902.254-1.621.757-2.152.508-.532 1.204-.801 2.09-.801.883 0 1.578.27 2.082.8.508.532.762 1.25.762 2.153v3.82c0 1.965-.95 2.95-2.844 2.95zm0-1.754c.18 0 .317-.063.403-.192.086-.133.129-.312.129-.539v-4.652c0-.555-.176-.828-.532-.828-.355 0-.535.273-.535.828v4.652c0 .227.043.406.13.54.089.128.222.19.405.19zm5.672 1.754c-.601 0-1.012-.125-1.238-.375-.223-.254-.336-.657-.336-1.211v-5.942h-.637v-1.726h.637v-2.012h2.21v2.012h.65v1.726h-.65v5.344c0 .164.013.285.04.363.023.078.094.117.207.117.086 0 .168-.004.246-.011.078-.008.129-.012.156-.012v1.559c-.129.035-.32.07-.566.109a4.614 4.614 0 0 1-.719.059zm3.98 0c-.597 0-1.007-.125-1.234-.375-.226-.254-.336-.657-.336-1.211v-5.942h-.636v-1.726h.636v-2.012h2.211v2.012h.645v1.726h-.645v5.344c0 .164.012.285.035.363.028.078.098.117.207.117.086 0 .172-.004.25-.011.079-.008.13-.012.153-.012v1.559c-.13.035-.317.07-.563.109-.25.039-.488.059-.722.059zm2.02-.106V128.77h2.317v11.227zm5.91.106c-.98 0-1.683-.266-2.109-.805-.422-.54-.633-1.34-.633-2.406v-3.82c0-.876.25-1.544.75-2 .504-.462 1.207-.692 2.11-.692 1.828 0 2.742.898 2.742 2.691v.688c0 .695-.008 1.258-.028 1.691h-3.3v1.844c0 .332.035.59.101.777.07.184.219.278.445.278.172 0 .297-.051.368-.157a.741.741 0 0 0 .132-.355c.012-.133.02-.332.02-.594v-.922h2.262v.547c0 1.106-.215 1.926-.645 2.45-.43.523-1.168.785-2.215.785zm.598-5.786v-1.218c0-.688-.172-1.032-.508-1.032-.383 0-.574.344-.574 1.032v1.218zm5.71 5.786c-1.878 0-2.82-.954-2.82-2.86l.012-.754h2.278l.011 1.117c0 .227.043.399.13.516.09.113.23.172.429.172.305 0 .453-.246.453-.738 0-.364-.07-.649-.215-.856-.14-.21-.367-.433-.68-.664l-1.206-.937c-.418-.32-.72-.653-.899-.993-.183-.343-.273-.828-.273-1.449 0-.488.129-.902.383-1.242a2.356 2.356 0 0 1 1.019-.773 3.682 3.682 0 0 1 1.418-.262c1.844 0 2.766.918 2.766 2.754v.187h-2.348v-.367c0-.226-.04-.418-.113-.578a.38.38 0 0 0-.371-.238c-.157 0-.274.043-.356.132a.54.54 0 0 0-.125.372c0 .347.137.617.406.808l1.403 1.024c.5.375.886.777 1.156 1.214.27.438.402.993.402 1.657 0 .886-.25 1.566-.754 2.047-.5.472-1.203.71-2.105.71zm0 0" stroke="#FF8850" stroke-width=".488"/><g clip-path="url(#i)"><path fill="#FF8850" d="M346.32 71.258c-.023-.02-.047-.04-.066-.059-.488-.55-.777-1.238-.942-1.941-.375-1.617-1.027-4.235-.242-5.813 1.95-.414 2.942 6.543 2.864 7.563-.614.363-.938.531-1.614.25zm-13.605-3.297c-.414-.09-.356-.035-1.125.297-1.863-1.477.004-4.153-.457-7.04 1.262 2.497 1.668 4.028 1.582 6.743zm15.773 6.281c1.383-3.699 2.782-2.77-.523-9.789-.98-2.09-1.59-4.984-4.203-5.023-.59 1.23-.106 2.586-.371 3.886-.473 2.32-1.825 2.543-1.496 5.2.32 2.582-2.848-.371-3.813-.633-1-.266-1.777 1.117-2.652 1.195-.649.059-.52.149-.883-.094-.922-1.75-.625-6.785-3.215-8.984l-.285-.059a1.94 1.94 0 0 0-.57-.101c-3.18 4.09-1.586 14.37-1.586 14.387-.192 2.28-1.864 4.324-2.637 6.437-1.617 4.398-.367 10.504 3.898 12.875 2.594-.52 4.762-.434 7.356-.578 4.164-.23 7.316-1.059 10.652 2.023 3.824-1.308-2.8-12.367.328-20.742"/></g><path fill="none" d="M314.171 119.145c0-.723.11-1.387.332-1.992.227-.614.508-1.16.836-1.649a25.32 25.32 0 0 1 1.301-1.722c.551-.684.985-1.262 1.305-1.739a7.33 7.33 0 0 0 .828-1.64 5.76 5.76 0 0 0 .34-2.004c0-.426-.063-.762-.184-.996-.12-.239-.344-.356-.66-.356-.523 0-.789.469-.789 1.406v1.922h-3.309l-.039-.968c0-1.196.125-2.176.368-2.946.246-.773.671-1.36 1.277-1.761.613-.403 1.457-.606 2.531-.606 1.317 0 2.336.371 3.055 1.11.719.738 1.082 1.785 1.082 3.136 0 .867-.121 1.653-.36 2.356a7.833 7.833 0 0 1-.875 1.843 24.99 24.99 0 0 1-1.382 1.844c-.418.504-.762.95-1.035 1.34a11 11 0 0 0-.743 1.207h4.285v2.965h-8.164zm13.016.898c-1.332 0-2.36-.375-3.082-1.125-.719-.754-1.074-1.824-1.074-3.215v-7.101c0-1.492.344-2.625 1.039-3.406.7-.782 1.734-1.172 3.117-1.172 1.39 0 2.434.39 3.129 1.172.695.78 1.043 1.914 1.043 3.406v7.101c0 1.403-.36 2.477-1.082 3.223-.719.746-1.75 1.117-3.09 1.117zm0-2.89c.23 0 .422-.11.566-.325a1.32 1.32 0 0 0 .22-.757v-7.766c0-.45-.052-.793-.157-1.031-.106-.238-.313-.36-.629-.36-.32 0-.527.122-.629.36-.094.238-.14.582-.14 1.031v7.766c0 .293.07.543.21.757.137.215.325.325.559.325zm9.5 2.742v-15.723h3.11v6.297l1.464-6.297h3.164l-1.754 7.192 2.122 8.53h-3.258l-1.719-7.612v7.613zm11.879.148c-1.137 0-1.98-.398-2.54-1.199-.554-.8-.831-2.012-.831-3.637v-6.77c0-1.456.324-2.554.973-3.296.644-.742 1.609-1.117 2.89-1.117 1.035 0 1.84.207 2.414.62.574.415.973 1.02 1.192 1.817.222.793.332 1.813.332 3.055h-3.075v-1.41c0-.38-.054-.672-.156-.875-.105-.211-.293-.317-.558-.317-.602 0-.899.391-.899 1.172v7.617c0 .477.059.836.184 1.083.12.242.336.367.64.367.305 0 .52-.125.641-.367.121-.247.184-.606.184-1.083v-2.253h-.84v-2.707h3.843v9.152h-1.265l-.531-1.317c-.563.977-1.426 1.465-2.598 1.465zm9.371 0c-1.43 0-2.46-.351-3.094-1.058-.636-.711-.953-1.852-.953-3.43v-1.535h3.094v1.957c0 .781.25 1.176.75 1.176.281 0 .476-.082.586-.246.11-.168.164-.446.164-.836 0-.512-.059-.938-.184-1.27a2.726 2.726 0 0 0-.468-.844 15.124 15.124 0 0 0-1.016-1.054l-1.352-1.356c-1.05-1.027-1.574-2.16-1.574-3.406 0-1.34.309-2.363.926-3.063.617-.703 1.516-1.054 2.7-1.054 1.413 0 2.433.375 3.058 1.129.62.75.933 1.922.933 3.52H358.3l-.015-1.083a.69.69 0 0 0-.176-.492.639.639 0 0 0-.48-.184c-.247 0-.43.07-.551.204-.121.132-.184.316-.184.55 0 .512.293 1.043.875 1.59l1.832 1.758c.426.418.781.812 1.059 1.184.285.37.511.812.68 1.316.171.508.257 1.11.257 1.805 0 1.547-.285 2.722-.851 3.523-.567.8-1.504 1.2-2.809 1.2zm0 0" stroke="#FF8850" stroke-width=".687"/><path fill="none" d="M321.063 129.172h2.949c.894 0 1.531.285 1.91.863.383.574.574 1.418.574 2.527 0 1.11-.168 1.946-.508 2.508-.34.563-.945.844-1.816.844h-.91v4.422h-2.2zm2.328 4.726c.27 0 .465-.05.59-.148a.699.699 0 0 0 .246-.43c.039-.183.058-.453.058-.797 0-.468-.05-.808-.156-1.015-.102-.207-.313-.309-.621-.309h-.246v2.7zm3.785 6.438v-11.23h2.312v11.23zm4.973.101c-.739 0-1.243-.242-1.516-.73-.27-.492-.406-1.192-.406-2.102 0-.746.097-1.316.289-1.715.195-.398.468-.69.812-.878.348-.184.88-.391 1.59-.618l.621-.207v-.976c0-.25-.05-.442-.148-.574-.102-.137-.219-.204-.356-.204a.395.395 0 0 0-.32.168c-.094.114-.137.262-.137.454v.57h-2.21v-.309c0-.937.218-1.601.656-2 .437-.398 1.152-.601 2.14-.601.785 0 1.426.207 1.918.62.496.411.742.993.742 1.747v7.254h-2.258v-1.133c-.113.39-.292.695-.542.91a1.266 1.266 0 0 1-.875.324zm.898-1.765c.172 0 .297-.07.367-.215.074-.14.113-.32.113-.527v-2.653c-.34.133-.586.297-.746.496-.164.2-.242.477-.242.828v1.223c0 .566.168.848.508.848zm6.285 1.765c-1.883 0-2.824-.953-2.824-2.859l.016-.754h2.273l.012 1.117c0 .227.043.399.132.516.086.113.227.172.426.172.305 0 .453-.246.453-.739 0-.363-.07-.648-.214-.855-.141-.21-.368-.434-.68-.664l-1.207-.938c-.418-.32-.715-.652-.899-.992-.183-.343-.273-.824-.273-1.449 0-.488.129-.902.383-1.242a2.356 2.356 0 0 1 1.02-.774 3.757 3.757 0 0 1 1.417-.261c1.848 0 2.77.918 2.77 2.754v.187h-2.352v-.367c0-.227-.039-.418-.113-.578a.377.377 0 0 0-.371-.238c-.152 0-.274.042-.356.132a.542.542 0 0 0-.12.375c0 .344.132.614.402.805l1.402 1.023c.504.375.887.778 1.156 1.215.27.438.403.992.403 1.657 0 .886-.25 1.566-.754 2.046-.5.473-1.203.711-2.102.711zm5.54 0c-.598 0-1.013-.125-1.24-.375-.222-.254-.335-.656-.335-1.21v-5.942h-.633v-1.727h.633v-2.011h2.215v2.011h.644v1.727h-.644v5.344c0 .164.012.285.035.363.027.078.094.117.207.117.086 0 .168-.004.246-.011a2.21 2.21 0 0 1 .156-.012v1.558c-.129.036-.316.07-.562.11a4.66 4.66 0 0 1-.723.058zm2.007-10.254v-1.585h2.273v1.585zm0 10.153v-9.516h2.273v9.516zm6.05.101c-1.038 0-1.788-.261-2.25-.793-.456-.527-.687-1.34-.687-2.43v-2.937c0-.824.09-1.492.266-2.008.18-.515.476-.902.894-1.164.422-.257 1.004-.39 1.75-.39.817 0 1.477.215 1.989.64.511.422.77 1.016.77 1.778v1.457h-2.313v-1.34c0-.25-.035-.442-.106-.574-.07-.137-.203-.203-.402-.203-.375 0-.559.261-.559.792v4.614c0 .215.043.398.137.55.09.153.227.231.41.231.18 0 .317-.074.406-.223.094-.148.133-.34.125-.57l-.011-1.602h2.312v1.665c0 .78-.254 1.394-.761 1.84-.508.445-1.165.667-1.97.667zm0 0" stroke="#FF8850" stroke-width=".488"/></svg>