<?xml version="1.0" standalone="no"?>
<!DOCTYPE svg PUBLIC "-//W3C//DTD SVG 1.1//EN" "http://www.w3.org/Graphics/SVG/1.1/DTD/svg11.dtd" >
<svg xmlns="http://www.w3.org/2000/svg" xmlns:xlink="http://www.w3.org/1999/xlink" version="1.1">
<metadata>
Created by FontForge 20170731 at Thu Sep  8 20:53:53 2016
 By Aleksey,,,
[c] Copyright 1989-2006, The Font Bureau, Inc. All rights reserved.
</metadata>
<defs>
<font id="BureauGrotWide-Light" horiz-adv-x="600" >
  <font-face 
    font-family="BureauGrotWide Light"
    font-weight="300"
    font-stretch="semi-expanded"
    units-per-em="1000"
    panose-1="2 0 6 5 5 0 0 2 0 4"
    ascent="800"
    descent="-200"
    x-height="524"
    cap-height="768"
    bbox="-264 -220 1362 972"
    underline-thickness="20"
    underline-position="-173"
    unicode-range="U+0020-FB04"
  />
<missing-glyph horiz-adv-x="500" 
 />
    <glyph glyph-name="f_f" unicode="ff" horiz-adv-x="706" 
d="M431 665q-7 16 -33 29t-59 13q-56 0 -86.5 -27.5t-30.5 -79.5v-76h219q-14 56 -14 101q0 23 4 40zM462 727q46 53 140 53q80 0 118.5 -29.5t38.5 -75.5q0 -18 -4 -30l-82 -3q4 13 3 28q-1 18 -17 32.5t-54 14.5q-39 0 -65 -21.5t-26 -69.5q0 -62 17 -102h170v-58h-166
v-466h-90v466h-223v-466h-90v466h-112v58h111v75q0 71 49 121t156 50q78 0 126 -43z" />
    <glyph glyph-name="fi" unicode="fi" horiz-adv-x="627" 
d="M535 524v-524h-90v466h-223v-466h-90v466h-112v58h111v91q0 70 51.5 117.5t146.5 47.5q177 0 177 -115q0 -18 -4 -30l-82 -3q4 13 3 28q-4 57 -91 57q-44 0 -77 -25t-33 -76v-92h313z" />
    <glyph glyph-name="fl" unicode="fl" horiz-adv-x="627" 
d="M445 524v130q-2 28 -35.5 45.5t-77.5 17.5t-77 -25t-33 -76v-92h223zM445 466h-223v-466h-90v466h-112v58h111v91q0 70 51.5 117.5t146.5 47.5q68 0 112 -24h94v-756h-90v466z" />
    <glyph glyph-name="f_f_i" unicode="ffi" horiz-adv-x="942" 
d="M449 654q-9 17 -42.5 35t-67.5 18q-56 0 -86.5 -27.5t-30.5 -79.5v-76h222v78q0 35 5 52zM535 0h-90v466h-223v-466h-90v466h-112v58h111v75q0 71 49 121t156 50q100 0 145 -53q55 63 161 63q177 0 177 -115q0 -18 -4 -30l-82 -3q4 13 3 28q-4 57 -91 57q-44 0 -77 -25
t-33 -76v-92h313v-524h-90v466h-223v-466z" />
    <glyph glyph-name="f_f_l" unicode="ffl" horiz-adv-x="942" 
d="M758 524v130q-2 28 -35.5 45.5t-77.5 17.5t-77 -25t-33 -76v-92h223zM449 654q-9 17 -42.5 35t-67.5 18q-56 0 -86.5 -27.5t-30.5 -79.5v-76h222v78q0 35 5 52zM754 756h94v-756h-90v466h-223v-466h-90v466h-223v-466h-90v466h-112v58h111v75q0 71 49 121t156 50
q100 0 145 -53q55 63 161 63q68 0 112 -24z" />
    <glyph glyph-name=".notdef" horiz-adv-x="500" 
 />
    <glyph glyph-name=".null" horiz-adv-x="0" 
 />
    <glyph glyph-name="nonmarkingreturn" horiz-adv-x="333" 
 />
    <glyph glyph-name="space" unicode=" " horiz-adv-x="330" 
 />
    <glyph glyph-name="exclam" unicode="!" horiz-adv-x="248" 
d="M90 228l-18 232v308h103v-308l-18 -232h-67zM60 0v114h128v-114h-128z" />
    <glyph glyph-name="quotedbl" unicode="&#x22;" horiz-adv-x="390" 
d="M77 518l-11 250h97l-11 -250h-75zM248 518l-11 250h97l-11 -250h-75z" />
    <glyph glyph-name="numbersign" unicode="#" horiz-adv-x="822" 
d="M292 295h217l29 183h-217zM174 0l39 228h-157v67h168l29 183h-159v67h170l35 223h69l-35 -223h216l37 223h65l-33 -223h149v-67h-161l-29 -183h152v-67h-163l-40 -228h-68l40 228h-217l-38 -228h-69z" />
    <glyph glyph-name="dollar" unicode="$" horiz-adv-x="696" 
d="M305 452v217q-71 -4 -107.5 -31t-36.5 -71q0 -45 29 -71t115 -44zM374 103q84 5 124 32.5t40 88.5q0 58 -35 84t-129 44v-249zM305 -86v117q-116 6 -177.5 47.5t-61.5 112.5q0 37 13 68l81 -4q-9 -22 -9 -51q0 -41 37.5 -68t116.5 -33v262q-125 26 -179.5 71.5
t-54.5 116.5q0 77 59 128.5t175 55.5v90h69v-90q221 -15 221 -163q0 -21 -5 -39l-83 -10q6 12 6 37q0 94 -139 106v-228q66 -12 108 -25t78.5 -35.5t53 -58.5t16.5 -88q0 -191 -256 -202v-117h-69z" />
    <glyph glyph-name="percent" unicode="%" horiz-adv-x="967" 
d="M239 374q-88 0 -133.5 52t-45.5 142q0 94 44 153.5t135 59.5q180 0 180 -213q0 -88 -46.5 -141t-133.5 -53zM143 1l595 768h85l-594 -768h-86zM236 433q107 0 107 135q0 158 -106 158q-50 0 -76 -41t-26 -117q0 -67 27 -101t74 -34zM727 -10q-88 0 -133.5 52t-45.5 142
q0 93 44 153t135 60q180 0 180 -213q0 -89 -46.5 -141.5t-133.5 -52.5zM724 48q107 0 107 136q0 157 -106 157q-102 0 -102 -157q0 -68 27 -102t74 -34z" />
    <glyph glyph-name="ampersand" unicode="&#x26;" horiz-adv-x="1038" 
d="M377 482q87 37 127.5 70.5t40.5 80.5q0 36 -27 58t-79 22q-54 0 -85.5 -22.5t-31.5 -64.5q0 -59 55 -144zM367 59q87 0 184 60q-110 108 -220 269q-167 -82 -167 -190q0 -62 50 -100.5t153 -38.5zM359 -15q-299 0 -299 214q0 83 60.5 141.5t171.5 106.5q-61 100 -61 168
q0 87 56.5 128.5t149.5 41.5q91 0 143 -38t52 -116q0 -59 -44 -104t-173 -102q85 -126 208 -251q56 53 90.5 122t41.5 136l87 -10q-22 -175 -157 -305q63 -51 123 -51q88 0 88 83q0 41 -15 71l78 10q17 -44 17 -91q0 -149 -179 -149q-56 0 -96 16.5t-85 53.5
q-113 -75 -257 -75z" />
    <glyph glyph-name="quotesingle" unicode="'" horiz-adv-x="231" 
d="M77 518l-11 250h97l-11 -250h-75z" />
    <glyph glyph-name="parenleft" unicode="(" horiz-adv-x="392" 
d="M313 -112q-114 75 -178 194.5t-64 261.5q0 135 66 260.5t174 186.5l37 -40q-82 -48 -131.5 -163t-49.5 -243q0 -136 47.5 -247t132.5 -170z" />
    <glyph glyph-name="parenright" unicode=")" horiz-adv-x="392" 
d="M79 792q114 -75 178 -194.5t64 -261.5q0 -135 -66 -260.5t-174 -186.5l-37 40q82 48 131.5 163t49.5 243q0 137 -47.5 247.5t-132.5 169.5z" />
    <glyph glyph-name="asterisk" unicode="*" horiz-adv-x="501" 
d="M221 426l5 133l-110 -71l-31 55l112 61l-111 61l32 55l108 -69l-5 130h63l-5 -128l107 67l32 -55l-112 -60l113 -62l-31 -55l-109 69l5 -131h-63z" />
    <glyph glyph-name="plus" unicode="+" horiz-adv-x="660" 
d="M290 128v210h-210v73h210v210h80v-210h210v-73h-210v-210h-80z" />
    <glyph glyph-name="comma" unicode="," horiz-adv-x="235" 
d="M42 -135l-11 38q93 23 83 97h-60v114h128v-115q0 -117 -140 -134z" />
    <glyph glyph-name="hyphen" unicode="-" horiz-adv-x="471" 
d="M73 280v90h325v-90h-325z" />
    <glyph glyph-name="period" unicode="." horiz-adv-x="235" 
d="M54 0v114h128v-114h-128z" />
    <glyph glyph-name="slash" unicode="/" horiz-adv-x="575" 
d="M0 -30l493 828h82l-489 -828h-86z" />
    <glyph glyph-name="zero" unicode="0" horiz-adv-x="722" 
d="M360 -17q-80 0 -138.5 28t-93.5 80.5t-51.5 120t-16.5 152.5q0 422 300 422q152 0 227 -101.5t75 -320.5q0 -113 -29.5 -196t-98.5 -134t-174 -51zM360 55q205 0 205 323q0 338 -205 338q-106 0 -155.5 -90.5t-49.5 -247.5q0 -149 49 -236t156 -87z" />
    <glyph glyph-name="one" unicode="1" horiz-adv-x="425" 
d="M222 0v629q-59 -45 -158 -45q-34 0 -64 6v60q92 5 163 37q62 31 93 90h59v-777h-93z" />
    <glyph glyph-name="two" unicode="2" horiz-adv-x="671" 
d="M59 0v72q73 46 129.5 85t121 91.5t106.5 99t70 100.5t28 104q0 89 -46 126.5t-138 37.5q-174 0 -174 -164q0 -47 20 -90l-89 -6q-22 50 -22 110q0 92 69.5 156t194.5 64q282 0 282 -235q0 -66 -37 -134.5t-100.5 -130t-131 -112t-146.5 -97.5h406v-77h-543z" />
    <glyph glyph-name="three" unicode="3" horiz-adv-x="666" 
d="M311 -17q-120 0 -190 49t-70 135q0 44 16 72l93 7q-16 -34 -16 -72q0 -59 45.5 -89t129.5 -30q88 0 137 47.5t49 138.5q0 85 -44.5 122t-114.5 37q-67 0 -103 -36l-56 54l257 272h-367v78h484v-64l-231 -241q20 7 57 7q86 0 150.5 -58.5t64.5 -165.5q0 -132 -76 -197.5
t-215 -65.5z" />
    <glyph glyph-name="four" unicode="4" horiz-adv-x="695" 
d="M433 0v195h-381v82l353 491h121v-499h133v-74h-133v-195h-93zM142 269h291v412z" />
    <glyph glyph-name="five" unicode="5" horiz-adv-x="660" 
d="M329 -17q-126 0 -192 46t-66 133q0 41 11 64l93 -2q-8 -19 -8 -47q0 -63 36.5 -92.5t124.5 -29.5q178 0 178 202q0 106 -40.5 153.5t-124.5 47.5q-146 0 -185 -115l-69 12l27 413h424l-4 -74h-348l-17 -237q24 34 74.5 56t123.5 22q108 0 172 -70t64 -209
q0 -131 -76.5 -202t-197.5 -71z" />
    <glyph glyph-name="six" unicode="6" horiz-adv-x="698" 
d="M371 -17q-306 0 -306 372q0 224 83 327.5t225 103.5q122 0 183.5 -41t61.5 -113q0 -25 -2 -33l-89 -5q2 7 2 29q0 41 -38 67t-115 26q-103 0 -163.5 -87.5t-59.5 -240.5v-11q27 52 86 82t146 30q118 0 189 -61t71 -190q0 -118 -73 -186.5t-201 -68.5zM363 55
q185 0 185 180q0 182 -181 182q-88 0 -143 -49t-55 -132t56 -132t138 -49z" />
    <glyph glyph-name="seven" unicode="7" horiz-adv-x="607" 
d="M201 0q-7 33 -7 90q0 200 80 360t192 242h-443v76h565v-67q-145 -96 -219.5 -244.5t-74.5 -307.5q0 -102 11 -149h-104z" />
    <glyph glyph-name="eight" unicode="8" horiz-adv-x="690" 
d="M343 -17q-139 0 -212 54.5t-73 159.5q0 83 49.5 139t117.5 66q-64 11 -105.5 54.5t-41.5 120.5q0 101 71.5 155t197.5 54q135 0 201 -51t66 -157q0 -72 -42.5 -118t-104.5 -58q72 -10 118.5 -63t46.5 -142q0 -99 -75.5 -156.5t-213.5 -57.5zM347 437q81 0 127.5 39.5
t46.5 104.5q0 137 -175 137q-84 0 -129.5 -35t-45.5 -102t47.5 -105.5t128.5 -38.5zM343 52q96 0 145 41.5t49 112.5q0 75 -49.5 116.5t-140.5 41.5q-92 0 -143 -41t-51 -117q0 -74 48 -114t142 -40z" />
    <glyph glyph-name="nine" unicode="9" horiz-adv-x="698" 
d="M530 533q0 84 -53 133.5t-134 49.5q-186 0 -186 -182q0 -88 44.5 -137t136.5 -49q82 0 137 51t55 134zM634 414q0 -224 -80 -327.5t-222 -103.5q-126 0 -186.5 43t-60.5 121q0 18 5 38l87 9q-3 -12 -3 -31q0 -108 155 -108q100 0 156.5 84.5t57.5 235.5v19
q-28 -51 -85.5 -83.5t-137.5 -32.5q-118 0 -189 60.5t-71 189.5q0 120 77.5 189t205.5 69q141 0 216 -85t75 -287z" />
    <glyph glyph-name="colon" unicode=":" horiz-adv-x="255" 
d="M64 410v114h128v-114h-128zM64 0v114h128v-114h-128z" />
    <glyph glyph-name="semicolon" unicode=";" horiz-adv-x="255" 
d="M64 410v114h128v-114h-128zM52 -135l-11 38q93 23 83 97h-60v114h128v-115q0 -117 -140 -134z" />
    <glyph glyph-name="less" unicode="&#x3c;" horiz-adv-x="661" 
d="M572 112l-504 193v108l504 193v-83l-433 -163l433 -165v-83z" />
    <glyph glyph-name="equal" unicode="=" horiz-adv-x="660" 
d="M80 427v73h500v-73h-500zM80 251v73h500v-73h-500z" />
    <glyph glyph-name="greater" unicode="&#x3e;" horiz-adv-x="661" 
d="M89 112v83l433 165l-433 163v83l504 -193v-108z" />
    <glyph glyph-name="question" unicode="?" horiz-adv-x="627" 
d="M126 218v230h68q42 -93 144 -93q133 0 133 188q0 83 -41.5 128.5t-121.5 45.5q-139 0 -139 -105q0 -28 10 -47l-96 6q-8 19 -8 54q0 68 58.5 114.5t176.5 46.5q124 0 192.5 -63.5t68.5 -176.5q0 -127 -61.5 -190t-156.5 -63q-58 0 -99.5 19t-54.5 41v-135h-73zM114 0v114
h128v-114h-128z" />
    <glyph glyph-name="at" unicode="@" horiz-adv-x="1186" 
d="M594 -148q-104 0 -188.5 26.5t-150.5 80t-102 143.5t-36 210q0 215 133.5 343t358.5 128q115 0 206 -31.5t148 -87t86.5 -128.5t29.5 -159q0 -143 -67.5 -219.5t-183.5 -76.5q-51 0 -79 21.5t-30 61.5q-67 -94 -219 -94q-163 0 -163 121q0 74 50.5 114t162.5 56
q136 19 197 61q7 52 -21 79.5t-104 27.5q-77 0 -110.5 -20.5t-33.5 -49.5q0 -12 1 -17l-80 -9q-4 9 -4 28q0 53 64.5 88.5t172.5 35.5q113 0 162 -45t31 -141l-35 -201q-9 -58 53 -58q75 0 119.5 61t44.5 173q0 151 -106 247.5t-301 96.5q-111 0 -201 -44.5t-146.5 -138.5
t-56.5 -224q0 -201 105 -300.5t295 -99.5q96 0 169 20t145 64l32 -41q-140 -102 -348 -102zM522 128q74 0 130 33t66 87l22 115q-67 -41 -186 -61q-72 -13 -103.5 -35t-31.5 -66q0 -73 103 -73z" />
    <glyph glyph-name="A" unicode="A" horiz-adv-x="846" 
d="M245 271h348l-177 411zM32 0l329 768h113l343 -768h-109q-83 195 -84 195h-410l-80 -195h-102z" />
    <glyph glyph-name="B" unicode="B" horiz-adv-x="840" 
d="M92 0v768h369q141 0 210.5 -45.5t69.5 -143.5q0 -76 -44 -122t-127 -53q92 -6 147 -53.5t55 -135.5q0 -215 -285 -215h-395zM187 442h243q114 0 164 30t50 97q0 70 -49 97.5t-164 27.5h-244v-252zM187 78h255q130 0 180.5 29t50.5 114q0 76 -53 111t-178 35h-255v-289z
" />
    <glyph glyph-name="C" unicode="C" horiz-adv-x="874" 
d="M473 -17q-188 0 -298 99.5t-110 290.5q0 184 105.5 298t302.5 114q76 0 137 -14.5t99 -37t63 -52.5t35.5 -59t10.5 -58q0 -38 -3 -48l-100 -10q3 15 3 45q0 61 -62 110.5t-183 49.5q-145 0 -227 -86t-82 -246q0 -322 309 -322q123 0 189 48t66 132q0 17 -2 25l92 -8
q3 -15 3 -28q0 -106 -88 -174.5t-260 -68.5z" />
    <glyph glyph-name="D" unicode="D" horiz-adv-x="891" 
d="M92 0v768h343q167 0 277.5 -102t110.5 -292q0 -374 -390 -374h-341zM187 78h215q168 0 245 65.5t77 230.5q0 159 -82.5 239.5t-237.5 80.5h-217v-616z" />
    <glyph glyph-name="E" unicode="E" horiz-adv-x="726" 
d="M92 0v768h557v-76h-462v-245h426v-74h-426v-295h493v-78h-588z" />
    <glyph glyph-name="F" unicode="F" horiz-adv-x="673" 
d="M92 0v768h543v-76h-448v-252h417v-74h-417v-366h-95z" />
    <glyph glyph-name="G" unicode="G" horiz-adv-x="921" 
d="M467 -17q-185 0 -293.5 99.5t-108.5 298.5q0 188 113.5 296t301.5 108q100 0 170.5 -21t105.5 -58t49 -77.5t12 -89.5l-100 -7q4 87 -50.5 133t-186.5 46q-148 0 -232 -86.5t-84 -242.5q0 -85 24 -149t67 -101.5t96.5 -55.5t118.5 -18q152 0 213.5 50t61.5 148l-2 41
h-235v75h330v-372h-53l-25 84q-78 -101 -293 -101z" />
    <glyph glyph-name="H" unicode="H" horiz-adv-x="877" 
d="M92 0v768h95v-333h503v333h95v-768h-95v356h-503v-356h-95z" />
    <glyph glyph-name="I" unicode="I" horiz-adv-x="285" 
d="M95 0v768h95v-768h-95z" />
    <glyph glyph-name="J" unicode="J" horiz-adv-x="614" 
d="M273 -17q-114 0 -176 43.5t-62 126.5q0 34 8 58l95 7q-7 -18 -7 -54q0 -107 142 -107q76 0 115 37t39 134v540h95v-560q0 -225 -249 -225z" />
    <glyph glyph-name="K" unicode="K" horiz-adv-x="764" 
d="M92 0v768h95v-408l399 408h117l-320 -324l374 -444h-124l-318 376l-128 -128v-248h-95z" />
    <glyph glyph-name="L" unicode="L" horiz-adv-x="666" 
d="M92 0v768h95v-690h437v-78h-532z" />
    <glyph glyph-name="M" unicode="M" horiz-adv-x="1048" 
d="M92 0v768h151l286 -656l283 656h144v-768h-87v683l-299 -683h-86l-300 683v-683h-92z" />
    <glyph glyph-name="N" unicode="N" horiz-adv-x="861" 
d="M92 0v768h115l475 -657v657h87v-768h-117l-473 656v-656h-87z" />
    <glyph glyph-name="O" unicode="O" horiz-adv-x="934" 
d="M65 377q0 188 113 298.5t291 110.5q177 0 288.5 -106.5t111.5 -301.5q0 -179 -105 -287t-297 -108q-190 0 -296 105.5t-106 288.5zM164 377q0 -144 81.5 -232t221.5 -88q149 0 226 88.5t77 234.5q0 152 -80.5 242t-220.5 90q-142 0 -223.5 -93.5t-81.5 -241.5z" />
    <glyph glyph-name="P" unicode="P" horiz-adv-x="769" 
d="M92 0v768h329q156 0 228.5 -52.5t72.5 -175.5q0 -114 -79.5 -167t-239.5 -53h-216v-320h-95zM187 394h231q113 0 159 35t46 113q0 80 -43.5 116t-146.5 36h-246v-300z" />
    <glyph glyph-name="Q" unicode="Q" horiz-adv-x="934" 
d="M504 -16q-17 -17 -17 -46q0 -63 91 -63q58 0 81 20.5t20 51.5l86 -4q8 -53 -35.5 -93.5t-150.5 -40.5q-178 0 -178 120q0 33 15 56q-166 14 -258.5 118t-92.5 274q0 188 113 298.5t291 110.5q177 0 288.5 -106.5t111.5 -301.5q0 -170 -95 -276.5t-270 -117.5zM467 57
q149 0 226 88.5t77 234.5q0 152 -80.5 242t-220.5 90q-142 0 -223.5 -93.5t-81.5 -241.5q0 -144 81.5 -232t221.5 -88z" />
    <glyph glyph-name="R" unicode="R" horiz-adv-x="827" 
d="M187 399h238q125 0 175 35t50 113q0 83 -47.5 115t-174.5 32h-241v-295zM92 0v768h363q154 0 224 -54t70 -167q0 -173 -191 -188q44 -3 71.5 -15t44.5 -38t25 -54.5t17 -79.5q17 -101 31 -133q10 -21 24 -39h-107q-18 17 -28 56.5t-21 119.5q-11 81 -47.5 115t-135.5 34
h-245v-325h-95z" />
    <glyph glyph-name="S" unicode="S" horiz-adv-x="789" 
d="M414 -17q-160 0 -253.5 62.5t-88.5 183.5l96 5q-7 -78 62 -127t178 -49q215 0 215 147q0 66 -56.5 99t-190.5 56q-160 28 -226.5 76t-66.5 145q0 96 77.5 150t212.5 54q145 0 224.5 -54.5t84.5 -158.5l-88 -11q-15 153 -225 153q-85 0 -137.5 -33t-52.5 -94q0 -62 48 -91
t179 -52q61 -11 101.5 -21t84.5 -28t69.5 -41.5t42 -60.5t16.5 -85q0 -225 -306 -225z" />
    <glyph glyph-name="T" unicode="T" horiz-adv-x="745" 
d="M326 0v692h-292v76h677v-76h-290v-692h-95z" />
    <glyph glyph-name="U" unicode="U" horiz-adv-x="866" 
d="M433 -17q-103 0 -171 20.5t-107 65.5t-54.5 106.5t-15.5 151.5v441h95v-474q0 -119 59 -178t194 -59t194 59t59 178v474h95v-441q0 -90 -15.5 -151.5t-54.5 -106.5t-107 -65.5t-171 -20.5z" />
    <glyph glyph-name="V" unicode="V" horiz-adv-x="801" 
d="M361 0l-338 768h108l279 -655l264 655h99l-317 -768h-95z" />
    <glyph glyph-name="W" unicode="W" horiz-adv-x="1207" 
d="M291 0l-244 768h104l193 -644l211 644h98l213 -644l194 644h95l-242 -768h-101l-210 651l-212 -651h-99z" />
    <glyph glyph-name="X" unicode="X" horiz-adv-x="823" 
d="M37 0l315 400l-288 368h117l230 -293l230 293h108l-284 -362l320 -406h-120l-259 332l-259 -332h-110z" />
    <glyph glyph-name="Y" unicode="Y" horiz-adv-x="752" 
d="M329 0v327l-320 441h116l255 -360l252 360h107l-315 -440v-328h-95z" />
    <glyph glyph-name="Z" unicode="Z" horiz-adv-x="724" 
d="M76 0v72l477 620h-472v76h586v-75l-477 -615h479v-78h-593z" />
    <glyph glyph-name="bracketleft" unicode="[" horiz-adv-x="359" 
d="M105 -82v850h237v-57h-149v-735h149v-58h-237z" />
    <glyph glyph-name="backslash" unicode="\" horiz-adv-x="575" 
d="M0 798h86l489 -828h-82z" />
    <glyph glyph-name="bracketright" unicode="]" horiz-adv-x="359" 
d="M18 -82v58h149v735h-149v57h237v-850h-237z" />
    <glyph glyph-name="asciicircum" unicode="^" horiz-adv-x="740" 
d="M128 544l206 224h89l207 -224h-92l-161 151l-156 -151h-93z" />
    <glyph glyph-name="underscore" unicode="_" horiz-adv-x="713" 
d="M0 -199v68h713v-68h-713z" />
    <glyph glyph-name="grave" unicode="`" 
d="M293 598l-166 129h144l93 -129h-71z" />
    <glyph glyph-name="a" unicode="a" horiz-adv-x="683" 
d="M280 55q202 0 202 131v96q-33 -26 -162 -39q-91 -9 -130.5 -32t-39.5 -69q0 -87 130 -87zM265 -12q-100 0 -154 39t-54 108t59 109t163 51q102 10 142 20t60 28v30q0 54 -34.5 78t-116.5 24q-149 0 -149 -90q0 -15 8 -29l-90 -8q-13 20 -13 45q0 62 64.5 102t182.5 40
q131 0 185.5 -41t54.5 -150v-238q0 -30 12 -41.5t40 -11.5q14 0 29 6l10 -45q-31 -23 -81 -23q-82 0 -98 84q-27 -40 -75.5 -63.5t-144.5 -23.5z" />
    <glyph glyph-name="b" unicode="b" horiz-adv-x="724" 
d="M667 257q0 -126 -81 -197.5t-199 -71.5q-73 0 -129 29.5t-81 69.5l-48 -87h-42v768h90v-342q26 47 86.5 78t124.5 31q124 0 201.5 -69t77.5 -209zM573 258q0 110 -54 160t-138 50q-88 0 -146.5 -54t-58.5 -153q0 -100 59 -153t144 -53q83 0 138.5 53t55.5 150z" />
    <glyph glyph-name="c" unicode="c" horiz-adv-x="681" 
d="M357 -12q-136 0 -216.5 74t-80.5 205q0 134 86 204t215 70q120 0 185 -45t65 -117q0 -21 -4 -33l-89 -3q2 5 2 22q-5 111 -161 111q-92 0 -148 -50.5t-56 -153.5q0 -106 57.5 -161.5t144.5 -55.5q90 0 139.5 33.5t49.5 92.5q0 23 -4 38l75 6q8 -26 8 -58
q0 -75 -69.5 -127t-198.5 -52z" />
    <glyph glyph-name="d" unicode="d" horiz-adv-x="727" 
d="M551 261q0 99 -58.5 153t-146.5 54q-83 0 -137.5 -53t-54.5 -164q0 -97 55 -146.5t139 -49.5q85 0 144 53t59 153zM640 0h-91v87q-25 -40 -80.5 -69.5t-128.5 -29.5q-119 0 -199.5 68.5t-80.5 193.5q0 141 78 213t201 72q65 0 126 -28t85 -71v332h90v-768z" />
    <glyph glyph-name="e" unicode="e" horiz-adv-x="698" 
d="M366 -12q-146 0 -226 73t-80 195q0 126 85.5 205.5t223.5 79.5q127 0 199 -63.5t72 -157.5q0 -30 -11 -76h-475q6 -97 64.5 -142t152.5 -45q88 0 134 37t41 86l79 -7q4 -12 4 -25q0 -58 -68 -109t-195 -51zM157 307h381q3 12 3 23q0 67 -43 106.5t-130 39.5
q-91 0 -144.5 -46.5t-66.5 -122.5z" />
    <glyph glyph-name="f" unicode="f" horiz-adv-x="393" 
d="M132 0v466h-112v58h108q-14 56 -14 101q0 67 43.5 111t129.5 44q78 0 116.5 -29.5t38.5 -75.5q0 -18 -4 -30l-82 -3q3 10 3 23q0 52 -67 52q-39 0 -65 -21.5t-26 -69.5q0 -62 17 -102h170v-58h-166v-466h-90z" />
    <glyph glyph-name="g" unicode="g" horiz-adv-x="662" 
d="M502 374q0 58 -38 85t-119 27q-79 0 -117.5 -27t-38.5 -85q0 -107 158 -107q155 0 155 107zM647 -32q0 -165 -288 -165q-151 0 -223.5 38.5t-72.5 105.5q0 83 83 115q-63 20 -63 85q0 32 26.5 56.5t75.5 35.5q-91 43 -91 135q0 83 66 125t186 42q54 0 94 -9l33 103h99
l-88 -116q57 -22 85 -56t28 -89q0 -84 -66 -125t-181 -41q-61 0 -102 10q-83 -13 -83 -50q0 -19 21.5 -29.5t79.5 -10.5q30 0 81 1.5t80 1.5q220 0 220 -163zM566 -41q0 48 -32 70t-111 22q-23 0 -102 -1t-99 0q-75 -22 -75 -93q0 -93 214 -93q108 0 156.5 27t48.5 68z" />
    <glyph glyph-name="h" unicode="h" horiz-adv-x="688" 
d="M605 0h-91v312q0 88 -36.5 122t-111.5 34q-91 0 -140 -54t-49 -131v-283h-90v768h90v-334q61 101 207 101q104 0 162.5 -43.5t58.5 -150.5v-341z" />
    <glyph glyph-name="i" unicode="i" horiz-adv-x="274" 
d="M188 663h-102v105h102v-105zM182 0h-90v524h90v-524z" />
    <glyph glyph-name="j" unicode="j" horiz-adv-x="274" 
d="M188 663h-102v105h102v-105zM182 -39q0 -77 -44.5 -117.5t-125.5 -40.5q-158 0 -164 103q-2 13 2 25l82 10q-2 -5 -2 -23q1 -22 21 -35t56 -13q33 0 50 11q23 14 30 44q5 23 5 52v547h90v-563z" />
    <glyph glyph-name="k" unicode="k" horiz-adv-x="603" 
d="M586 0h-119l-198 252l-92 -94v-158h-90v768h90v-508l259 264h120l-224 -204z" />
    <glyph glyph-name="l" unicode="l" horiz-adv-x="274" 
d="M182 0h-90v768h90v-768z" />
    <glyph glyph-name="m" unicode="m" horiz-adv-x="1117" 
d="M1034 0h-91v309q0 92 -40 126t-126 34q-78 0 -125 -51.5t-47 -131.5v-286h-91v309q0 87 -38 123.5t-122 36.5q-83 0 -130 -54t-47 -134v-281h-90v524h90v-87q56 98 200 98q174 0 212 -119q55 119 217 119q228 0 228 -202v-333z" />
    <glyph glyph-name="n" unicode="n" horiz-adv-x="688" 
d="M87 0v524h90v-90q27 50 81.5 75.5t125.5 25.5q104 0 162.5 -43.5t58.5 -150.5v-341h-91v312q0 89 -37 122.5t-122 33.5q-82 0 -130 -54.5t-48 -130.5v-283h-90z" />
    <glyph glyph-name="o" unicode="o" horiz-adv-x="720" 
d="M60 264q0 89 46.5 154t113 94t141.5 29q54 0 106 -17.5t96 -50t70.5 -87t26.5 -122.5q0 -69 -26 -123.5t-69 -87t-95 -49t-109 -16.5t-109 16.5t-96 49t-70 87t-26 123.5zM155 264q0 -91 54 -150t152 -59q100 0 152.5 60t52.5 149q0 94 -55 153t-150 59q-96 0 -151 -59.5
t-55 -152.5z" />
    <glyph glyph-name="p" unicode="p" horiz-adv-x="727" 
d="M379 55q83 0 138.5 53t55.5 150q0 110 -54 160t-138 50q-88 0 -146.5 -54t-58.5 -153q0 -100 59 -153t144 -53zM87 -185v709h90v-98q26 47 86.5 78t124.5 31q124 0 201.5 -69t77.5 -209q0 -126 -81 -197.5t-199 -71.5q-73 0 -129 29.5t-81 69.5v-272h-90z" />
    <glyph glyph-name="q" unicode="q" horiz-adv-x="727" 
d="M640 -185h-91v272q-25 -40 -80.5 -69.5t-128.5 -29.5q-119 0 -199.5 68.5t-80.5 193.5q0 141 78 213t201 72q65 0 126.5 -28t86.5 -74l39 91h49v-709zM551 261q0 99 -58.5 153t-146.5 54q-83 0 -137.5 -53t-54.5 -164q0 -97 55 -146.5t139 -49.5q85 0 144 53t59 153z" />
    <glyph glyph-name="r" unicode="r" horiz-adv-x="546" 
d="M87 0v524h90v-95q25 50 77 78t124 28q77 0 119 -42t42 -100q0 -31 -7 -48l-91 -6q5 15 5 38q0 88 -103 88q-69 0 -117.5 -49t-48.5 -124v-292h-90z" />
    <glyph glyph-name="s" unicode="s" horiz-adv-x="628" 
d="M571 151q0 -163 -260 -163q-119 0 -178 41.5t-59 104.5q0 7 2 23l84 7q-1 -5 -1 -16q0 -42 37 -68t119 -26q78 0 121 22.5t43 64.5q0 39 -32.5 55t-162.5 44q-111 24 -157.5 56.5t-46.5 91.5q0 68 61 110.5t171 42.5q123 0 178 -36t54 -94q0 -18 -4 -33l-82 -7q5 17 5 28
q-2 78 -152 78q-74 0 -107 -22t-33 -55q0 -32 31 -50.5t140 -39.5q120 -23 174.5 -55.5t54.5 -103.5z" />
    <glyph glyph-name="t" unicode="t" horiz-adv-x="463" 
d="M404 30q-47 -37 -113 -37q-77 0 -107.5 36.5t-30.5 115.5v321h-120v58h120v176h90v-176h155v-58h-155v-331q0 -38 14 -56.5t49 -18.5q46 0 95 31z" />
    <glyph glyph-name="u" unicode="u" horiz-adv-x="688" 
d="M601 0h-91v99q-29 -56 -78 -83.5t-130 -27.5q-98 0 -158.5 49t-60.5 158v329h91v-309q0 -90 34.5 -125t118.5 -35t133.5 56t49.5 133v280h91v-524z" />
    <glyph glyph-name="v" unicode="v" horiz-adv-x="639" 
d="M608 524l-231 -524h-110l-242 524h100l198 -453l191 453h94z" />
    <glyph glyph-name="w" unicode="w" horiz-adv-x="927" 
d="M218 0l-207 524h100l160 -435l150 435h94l148 -435l161 435h90l-204 -524h-104l-141 416l-146 -416h-101z" />
    <glyph glyph-name="x" unicode="x" horiz-adv-x="649" 
d="M622 0h-112l-186 213l-189 -213h-102l240 273l-222 251h112l168 -185l170 185h101l-220 -244z" />
    <glyph glyph-name="y" unicode="y" horiz-adv-x="629" 
d="M607 524l-236 -548q-38 -96 -82.5 -134.5t-117.5 -38.5q-77 0 -116 27.5t-39 75.5q0 20 11 39l83 3q-8 -14 -8 -32q0 -50 65 -50q71 0 109 87l13 30l-264 541h101l207 -430l182 430h92z" />
    <glyph glyph-name="z" unicode="z" horiz-adv-x="636" 
d="M572 0h-521v65l397 390h-378v69h497v-62l-401 -390h406v-72z" />
    <glyph glyph-name="braceleft" unicode="{" horiz-adv-x="498" 
d="M359 -82q-84 0 -119 26.5t-35 96.5v235q0 33 -15 45.5t-55 12.5h-28v53h28q46 0 58 11.5t12 51.5v192q0 63 34.5 94.5t119.5 31.5h93v-57h-94q-33 0 -49 -17t-16 -43v-208q0 -38 -21 -60t-52 -22h-4v-2h4q31 0 52 -23.5t21 -62.5v-237q0 -60 65 -60h94v-58h-93z" />
    <glyph glyph-name="bar" unicode="|" horiz-adv-x="321" 
d="M121 -200v1000h79v-1000h-79z" />
    <glyph glyph-name="braceright" unicode="}" horiz-adv-x="498" 
d="M148 -82h-93v58h94q65 0 65 60v237q0 39 21 62.5t52 23.5h4v2h-4q-31 0 -52 22t-21 60v208q0 26 -16 43t-49 17h-94v57h93q85 0 119.5 -31.5t34.5 -94.5v-192q0 -40 12 -51.5t58 -11.5h28v-53h-28q-40 0 -55 -12.5t-15 -45.5v-235q0 -70 -35 -96.5t-119 -26.5z" />
    <glyph glyph-name="asciitilde" unicode="~" horiz-adv-x="740" 
d="M268 659q-51 0 -51 -56q0 -19 6 -39h-59q-16 30 -16 67q0 104 117 104q38 0 71 -15t52 -33.5t42.5 -33.5t46.5 -15q54 0 54 53q0 16 -9 38h60q17 -30 17 -71q0 -97 -126 -97q-36 0 -66 15.5t-47 33.5t-41.5 33.5t-50.5 15.5z" />
    <glyph glyph-name="exclamdown" unicode="&#xa1;" horiz-adv-x="248" 
d="M188 768v-114h-128v114h128zM158 540l18 -232v-308h-103v308l18 232h67z" />
    <glyph glyph-name="cent" unicode="&#xa2;" horiz-adv-x="684" 
d="M328 613q-173 -16 -173 -203q0 -97 48 -151.5t125 -63.5v418zM385 678q108 -4 167 -48.5t59 -112.5q0 -21 -4 -33l-89 -3q2 5 2 22q-5 101 -135 110v-419q77 5 119 38t42 87q0 23 -4 38l75 6q8 -26 8 -58q0 -71 -62 -121.5t-178 -56.5v-83h-57v83q-124 8 -196 81.5
t-72 196.5q0 129 71.5 197t196.5 76v67h57v-67z" />
    <glyph glyph-name="sterling" unicode="&#xa3;" horiz-adv-x="760" 
d="M160 -16q-52 0 -84 25.5t-32 64.5q0 42 31.5 70t86.5 28q31 0 62.5 -9t51.5 -19t52 -29q36 50 36 111q0 52 -42 111h-160v62h122q-27 35 -45.5 85.5t-18.5 98.5q0 94 64 148.5t166 54.5q106 0 168.5 -47t62.5 -141q0 -37 -16 -64l-87 -9q13 33 13 78q0 55 -41.5 84
t-97.5 29q-140 0 -140 -124q0 -57 18.5 -100.5t52.5 -92.5h205v-62h-175q32 -49 32 -107q0 -81 -54 -144q82 -34 152 -34q49 0 74 23.5t24 76.5q0 34 -14 58l79 4q22 -29 22 -70q0 -81 -43.5 -120.5t-136.5 -39.5q-18 0 -35 1.5t-29 3.5t-29 7t-24 7t-24 9.5t-20.5 9
t-21.5 11t-19 9.5q-79 -58 -186 -58zM167 40q66 0 115 33q-62 41 -118 41q-55 0 -55 -36q0 -15 15.5 -26.5t42.5 -11.5z" />
    <glyph glyph-name="yen" unicode="&#xa5;" horiz-adv-x="757" 
d="M333 0v280h-277v62h266l-58 84h-208v62h164l-197 280h112l249 -371l246 371h103l-194 -280h176v-62h-218l-59 -84h277v-62h-287v-280h-95z" />
    <glyph glyph-name="brokenbar" unicode="&#xa6;" horiz-adv-x="321" 
d="M121 333v467h79v-467h-79zM121 -200v467h79v-467h-79z" />
    <glyph glyph-name="section" unicode="&#xa7;" horiz-adv-x="638" 
d="M418 241q65 30 65 98q0 35 -20.5 55t-67.5 32l-161 41q-67 -37 -68 -92q-1 -40 21 -60t64 -31zM306 -90q-132 0 -190.5 52.5t-43.5 123.5l85 7q-9 -49 27.5 -83t126.5 -34q79 0 123 26.5t44 74.5q0 34 -25.5 55t-108.5 43l-96 24q-81 19 -122.5 56.5t-41.5 102.5
q0 76 85 131q-83 43 -82 129q1 72 63 117t172 45q143 0 195 -48.5t32 -121.5l-82 -7q16 53 -22.5 83t-124.5 30q-74 0 -108.5 -25t-34.5 -60q0 -68 77 -86l141 -34q90 -21 134 -57.5t43 -112.5q-1 -84 -81 -129q79 -44 79 -129q0 -173 -264 -173z" />
    <glyph glyph-name="dieresis" unicode="&#xa8;" 
d="M129 598v93h109v-93h-109zM363 598v93h108v-93h-108z" />
    <glyph glyph-name="copyright" unicode="&#xa9;" horiz-adv-x="921" 
d="M460 -44q-170 0 -290.5 121.5t-120.5 293.5t120.5 293.5t290.5 121.5t290.5 -121.5t120.5 -293.5t-120.5 -293.5t-290.5 -121.5zM460 1q152 0 257.5 108t105.5 262t-105.5 262t-257.5 108q-151 0 -256.5 -108.5t-105.5 -261.5t105.5 -261.5t256.5 -108.5zM466 153
q-90 0 -149.5 56.5t-59.5 152.5q0 116 57.5 177.5t151.5 61.5q100 0 143 -42t41 -115l-65 -4q0 56 -25.5 85t-90.5 29q-66 0 -103.5 -47.5t-37.5 -133.5q0 -82 37.5 -125t104.5 -43q111 0 111 94q0 20 -4 31l63 1q8 -18 8 -43q0 -57 -45 -96t-137 -39z" />
    <glyph glyph-name="ordfeminine" unicode="&#xaa;" horiz-adv-x="491" 
d="M333 534v58q-32 -14 -107 -23q-62 -7 -88.5 -21.5t-26.5 -44.5q0 -56 86 -56q136 0 136 87zM36 498q0 50 42 79.5t117 37.5q69 8 96.5 14t40.5 17v19q0 35 -22.5 50.5t-77.5 15.5q-99 0 -99 -58q0 -9 8 -24q-71 -7 -73 -7q-12 15 -12 37q0 45 46.5 74.5t131.5 29.5
q95 0 134 -30t39 -109v-166q0 -19 7 -25.5t24 -6.5q8 0 26 5q7 -37 8 -40q-29 -19 -63 -19q-55 0 -71 52q-42 -54 -152 -54q-73 0 -111.5 29t-38.5 79zM37 283v60h420v-60h-420z" />
    <glyph glyph-name="guillemotleft" unicode="&#xab;" horiz-adv-x="906" 
d="M445 35l-362 200v80l362 198v-77l-285 -161l285 -163v-77zM820 35l-363 200v80l363 198v-77l-287 -161l287 -163v-77z" />
    <glyph glyph-name="registered" unicode="&#xae;" horiz-adv-x="921" 
d="M460 -44q-170 0 -290.5 121.5t-120.5 293.5t120.5 293.5t290.5 121.5t290.5 -121.5t120.5 -293.5t-120.5 -293.5t-290.5 -121.5zM460 1q152 0 257.5 108t105.5 262t-105.5 262t-257.5 108q-151 0 -256.5 -108.5t-105.5 -261.5t105.5 -261.5t256.5 -108.5zM356 396h122
q49 0 71 18.5t22 56.5q0 43 -22 60t-71 17h-122v-152zM288 178v416h197q156 0 156 -122q0 -88 -97 -96v-4q44 -3 60 -25t25 -76q1 -8 4 -24.5t4 -22.5t4 -16t7 -16.5t10 -13.5h-78q-18 15 -28 95q-6 43 -23.5 60.5t-66.5 17.5h-106v-173h-68z" />
    <glyph glyph-name="macron" unicode="&#xaf;" 
d="M119 608v74h361v-74h-361z" />
    <glyph glyph-name="degree" unicode="&#xb0;" horiz-adv-x="432" 
d="M215 471q-62 0 -105 41.5t-43 106.5q0 62 43.5 104.5t104.5 42.5q63 0 106.5 -40.5t43.5 -106.5q0 -65 -43.5 -106.5t-106.5 -41.5zM215 524q40 0 67.5 27.5t27.5 67.5t-27.5 67.5t-67.5 27.5t-67.5 -27t-27.5 -68t27.5 -68t67.5 -27z" />
    <glyph glyph-name="twosuperior" unicode="&#xb2;" horiz-adv-x="427" 
d="M391 275h-356v68q126 79 180 125q93 79 93 151q0 45 -23 65.5t-72 20.5q-89 0 -89 -86q0 -43 12 -67l-84 -3q-13 33 -13 79q0 63 43.5 103.5t129.5 40.5q94 0 139.5 -37.5t45.5 -115.5q0 -97 -128 -198q-53 -41 -112 -75h234v-71z" />
    <glyph glyph-name="threesuperior" unicode="&#xb3;" horiz-adv-x="413" 
d="M202 272q-85 0 -128 39t-43 96q0 27 9 43l86 5q-10 -22 -10 -44q0 -71 90 -71q46 0 71.5 26.5t25.5 70.5q0 43 -21.5 64t-58.5 21q-22 0 -45.5 -6.5t-31.5 -15.5l-34 58l154 138h-220v72h321v-64l-141 -124q13 5 34 5q54 0 92.5 -38t38.5 -107q0 -77 -50 -122.5
t-139 -45.5z" />
    <glyph glyph-name="acute" unicode="&#xb4;" 
d="M338 598h-71l93 129h144z" />
    <glyph glyph-name="paragraph" unicode="&#xb6;" horiz-adv-x="788" 
d="M361 340h57v372h-55q-59 0 -93.5 -42t-34.5 -146q0 -184 126 -184zM418 -41v323h-93q-53 0 -99 12.5t-85 39.5t-61.5 75.5t-22.5 114.5q0 65 22.5 114t61 76.5t84 40.5t98.5 13h339v-809h-77v753h-90v-753h-77z" />
    <glyph glyph-name="periodcentered" unicode="&#xb7;" horiz-adv-x="234" 
d="M117 457q31 0 53 -22t22 -53t-22 -52.5t-53 -21.5t-53 21.5t-22 52.5t22 53t53 22z" />
    <glyph glyph-name="cedilla" unicode="&#xb8;" 
d="M296 -220q-106 0 -159 50l35 43q41 -37 119 -37q36 0 56 12.5t20 30.5q0 36 -62 36q-41 0 -62 -7l26 58q22 5 53 5q60 0 94 -23.5t34 -66.5q0 -45 -40.5 -73t-113.5 -28z" />
    <glyph glyph-name="onesuperior" unicode="&#xb9;" horiz-adv-x="285" 
d="M133 286v379q-27 -24 -95 -24q-14 0 -38 4v56q65 3 101 21q41 21 59 55h59v-491h-86z" />
    <glyph glyph-name="ordmasculine" unicode="&#xba;" horiz-adv-x="501" 
d="M34 583q0 94 65.5 146.5t150.5 52.5q84 0 149 -52.5t65 -146.5q0 -96 -63.5 -147t-150.5 -51t-151.5 51t-64.5 147zM388 583q0 63 -37 103t-101 40q-65 0 -102 -40t-37 -103q0 -61 36.5 -101t102.5 -40q68 0 103 40.5t35 100.5zM37 283v60h420v-60h-420z" />
    <glyph glyph-name="guillemotright" unicode="&#xbb;" horiz-adv-x="906" 
d="M86 35v77l289 163l-289 161v77l364 -198v-80zM462 35v77l285 163l-285 161v77l362 -198v-80z" />
    <glyph glyph-name="onequarter" unicode="&#xbc;" horiz-adv-x="855" 
d="M133 286v379q-27 -24 -95 -24q-14 0 -38 4v56q65 3 101 21q41 21 59 55h59v-491h-86zM61 0l593 768h67l-591 -768h-69zM673 0v117h-228v79l212 295h102v-300h80v-74h-80v-117h-86zM529 191h144v204l-39 -56z" />
    <glyph glyph-name="onehalf" unicode="&#xbd;" horiz-adv-x="922" 
d="M133 286v379q-27 -24 -95 -24q-14 0 -38 4v56q65 3 101 21q41 21 59 55h59v-491h-86zM61 0l593 768h67l-591 -768h-69zM867 0h-356v68q126 79 180 125q93 79 93 151q0 45 -23 65.5t-72 20.5q-89 0 -89 -86q0 -43 12 -67l-84 -3q-13 33 -13 79q0 63 43.5 103.5t129.5 40.5
q94 0 139.5 -37.5t45.5 -115.5q0 -97 -128 -198q-53 -41 -112 -75h234v-71z" />
    <glyph glyph-name="threequarters" unicode="&#xbe;" horiz-adv-x="983" 
d="M189 0l593 768h67l-591 -768h-69zM801 0v117h-228v79l212 295h102v-300h80v-74h-80v-117h-86zM205 272q-85 0 -128 39t-43 96q0 27 9 43l86 5q-10 -22 -10 -44q0 -71 90 -71q46 0 71.5 26.5t25.5 70.5q0 43 -21.5 64t-58.5 21q-22 0 -45.5 -6.5t-31.5 -15.5l-34 58
l154 138h-220v72h321v-64l-141 -124q13 5 34 5q54 0 92.5 -38t38.5 -107q0 -77 -50 -122.5t-139 -45.5zM657 191h144v204l-31 -44z" />
    <glyph glyph-name="questiondown" unicode="&#xbf;" horiz-adv-x="627" 
d="M532 768v-114h-128v114h128zM520 550v-230h-68q-42 93 -144 93q-133 0 -133 -188q0 -83 41.5 -128.5t121.5 -45.5q139 0 139 105q0 28 -10 47l96 -6q8 -19 8 -54q0 -68 -58.5 -114.5t-176.5 -46.5q-124 0 -192.5 63.5t-68.5 176.5q0 127 61.5 190t156.5 63q58 0 99.5 -19
t54.5 -41v135h73z" />
    <glyph glyph-name="Agrave" unicode="&#xc0;" horiz-adv-x="846" 
d="M410 825l-166 129h144l93 -129h-71zM245 271h348l-177 411zM32 0l329 768h113l343 -768h-109q-83 195 -84 195h-410l-80 -195h-102z" />
    <glyph glyph-name="Aacute" unicode="&#xc1;" horiz-adv-x="846" 
d="M442 825h-71l93 129h144zM245 271h348l-177 411zM32 0l329 768h113l343 -768h-109q-83 195 -84 195h-410l-80 -195h-102z" />
    <glyph glyph-name="Acircumflex" unicode="&#xc2;" horiz-adv-x="846" 
d="M231 826l134 140h100l135 -140h-65l-120 82l-120 -82h-64zM245 271h348l-177 411zM32 0l329 768h113l343 -768h-109q-83 195 -84 195h-410l-80 -195h-102z" />
    <glyph glyph-name="Atilde" unicode="&#xc3;" horiz-adv-x="846" 
d="M499 815q-37 0 -107 38q-52 29 -74 29q-37 0 -37 -35l3 -25h-43q-13 17 -13 42q0 40 23 63.5t64 23.5q36 0 96 -33q58 -31 82 -31q17 0 28.5 10.5t11.5 27.5l-2 20h44q11 -18 11 -41q0 -41 -22.5 -65t-64.5 -24zM245 271h348l-177 411zM32 0l329 768h113l343 -768h-109
q-83 195 -84 195h-410l-80 -195h-102z" />
    <glyph glyph-name="Adieresis" unicode="&#xc4;" horiz-adv-x="846" 
d="M246 824v93h109v-93h-109zM480 824v93h108v-93h-108zM245 271h348l-177 411zM32 0l329 768h113l343 -768h-109q-83 195 -84 195h-410l-80 -195h-102z" />
    <glyph glyph-name="Aring" unicode="&#xc5;" horiz-adv-x="846" 
d="M417 804q23 0 40 15.5t17 36.5q0 22 -17 38.5t-40 16.5q-22 0 -38.5 -16.5t-16.5 -38.5t16 -37t39 -15zM245 271h348l-177 413zM475 767l342 -767h-109q-83 195 -84 195h-410l-80 -195h-102l328 766q-54 29 -54 90q0 44 32 74.5t79 30.5q48 0 79.5 -30t31.5 -75
q0 -61 -53 -89z" />
    <glyph glyph-name="AE" unicode="&#xc6;" horiz-adv-x="1210" 
d="M278 271h298v409zM1133 692h-462v-245h426v-74h-426v-295h493v-78h-588v195h-347l-141 -195h-101l551 768h595v-76z" />
    <glyph glyph-name="Ccedilla" unicode="&#xc7;" horiz-adv-x="874" 
d="M473 -17q-188 0 -298 99.5t-110 290.5q0 184 105.5 298t302.5 114q76 0 137 -14.5t99 -37t63 -52.5t35.5 -59t10.5 -58q0 -38 -3 -48l-100 -10q3 15 3 45q0 61 -62 110.5t-183 49.5q-145 0 -227 -86t-82 -246q0 -322 309 -322q123 0 189 48t66 132q0 17 -2 25l92 -8
q3 -15 3 -28q0 -106 -88 -174.5t-260 -68.5zM458 -220q-106 0 -159 50l35 43q41 -37 119 -37q36 0 56 12.5t20 30.5q0 36 -62 36q-41 0 -62 -7l26 58q22 5 53 5q60 0 94 -23.5t34 -66.5q0 -45 -40.5 -73t-113.5 -28z" />
    <glyph glyph-name="Egrave" unicode="&#xc8;" horiz-adv-x="726" 
d="M373 826l-166 129h144l93 -129h-71zM92 0v768h557v-76h-462v-245h426v-74h-426v-295h493v-78h-588z" />
    <glyph glyph-name="Eacute" unicode="&#xc9;" horiz-adv-x="726" 
d="M401 825h-71l93 129h144zM92 0v768h557v-76h-462v-245h426v-74h-426v-295h493v-78h-588z" />
    <glyph glyph-name="Ecircumflex" unicode="&#xca;" horiz-adv-x="726" 
d="M195 828l134 140h100l135 -140h-65l-120 82l-120 -82h-64zM92 0v768h557v-76h-462v-245h426v-74h-426v-295h493v-78h-588z" />
    <glyph glyph-name="Edieresis" unicode="&#xcb;" horiz-adv-x="726" 
d="M200 826v93h109v-93h-109zM434 826v93h108v-93h-108zM92 0v768h557v-76h-462v-245h426v-74h-426v-295h493v-78h-588z" />
    <glyph glyph-name="Igrave" unicode="&#xcc;" horiz-adv-x="285" 
d="M114 825l-166 129h144l93 -129h-71zM95 0v768h95v-768h-95z" />
    <glyph glyph-name="Iacute" unicode="&#xcd;" horiz-adv-x="285" 
d="M172 825h-71l93 129h144zM95 0v768h95v-768h-95z" />
    <glyph glyph-name="Icircumflex" unicode="&#xce;" horiz-adv-x="285" 
d="M-47 826l134 140h100l135 -140h-65l-120 82l-120 -82h-64zM95 0v768h95v-768h-95z" />
    <glyph glyph-name="Idieresis" unicode="&#xcf;" horiz-adv-x="285" 
d="M-9 825v93h109v-93h-109zM185 825v93h108v-93h-108zM95 0v768h95v-768h-95z" />
    <glyph glyph-name="Eth" unicode="&#xd0;" horiz-adv-x="901" 
d="M102 356h-88v79h88v333h343q167 0 277.5 -102t110.5 -292q0 -374 -390 -374h-341v356zM197 435h184v-79h-184v-278h215q168 0 245 65.5t77 230.5q0 159 -82.5 239.5t-237.5 80.5h-217v-259z" />
    <glyph glyph-name="Ntilde" unicode="&#xd1;" horiz-adv-x="861" 
d="M527 810q-37 0 -107 38q-52 29 -74 29q-37 0 -37 -35l3 -25h-43q-13 17 -13 42q0 40 23 63.5t64 23.5q36 0 96 -33q58 -31 82 -31q17 0 28.5 10.5t11.5 27.5l-2 20h44q11 -18 11 -41q0 -41 -22.5 -65t-64.5 -24zM92 0v768h115l475 -657v657h87v-768h-117l-473 656v-656
h-87z" />
    <glyph glyph-name="Ograve" unicode="&#xd2;" horiz-adv-x="934" 
d="M458 825l-166 129h144l93 -129h-71zM65 377q0 188 113 298.5t291 110.5q177 0 288.5 -106.5t111.5 -301.5q0 -179 -105 -287t-297 -108q-190 0 -296 105.5t-106 288.5zM164 377q0 -144 81.5 -232t221.5 -88q149 0 226 88.5t77 234.5q0 152 -80.5 242t-220.5 90
q-142 0 -223.5 -93.5t-81.5 -241.5z" />
    <glyph glyph-name="Oacute" unicode="&#xd3;" horiz-adv-x="934" 
d="M489 825h-71l93 129h144zM65 377q0 188 113 298.5t291 110.5q177 0 288.5 -106.5t111.5 -301.5q0 -179 -105 -287t-297 -108q-190 0 -296 105.5t-106 288.5zM164 377q0 -144 81.5 -232t221.5 -88q149 0 226 88.5t77 234.5q0 152 -80.5 242t-220.5 90q-142 0 -223.5 -93.5
t-81.5 -241.5z" />
    <glyph glyph-name="Ocircumflex" unicode="&#xd4;" horiz-adv-x="934" 
d="M283 825l134 140h100l135 -140h-65l-120 82l-120 -82h-64zM65 377q0 188 113 298.5t291 110.5q177 0 288.5 -106.5t111.5 -301.5q0 -179 -105 -287t-297 -108q-190 0 -296 105.5t-106 288.5zM164 377q0 -144 81.5 -232t221.5 -88q149 0 226 88.5t77 234.5
q0 152 -80.5 242t-220.5 90q-142 0 -223.5 -93.5t-81.5 -241.5z" />
    <glyph glyph-name="Otilde" unicode="&#xd5;" horiz-adv-x="934" 
d="M543 815q-37 0 -107 38q-52 29 -74 29q-37 0 -37 -35l3 -25h-43q-13 17 -13 42q0 40 23 63.5t64 23.5q36 0 96 -33q58 -31 82 -31q17 0 28.5 10.5t11.5 27.5l-2 20h44q11 -18 11 -41q0 -41 -22.5 -65t-64.5 -24zM65 377q0 188 113 298.5t291 110.5q177 0 288.5 -106.5
t111.5 -301.5q0 -179 -105 -287t-297 -108q-190 0 -296 105.5t-106 288.5zM164 377q0 -144 81.5 -232t221.5 -88q149 0 226 88.5t77 234.5q0 152 -80.5 242t-220.5 90q-142 0 -223.5 -93.5t-81.5 -241.5z" />
    <glyph glyph-name="Odieresis" unicode="&#xd6;" horiz-adv-x="934" 
d="M293 824v93h109v-93h-109zM527 824v93h108v-93h-108zM65 377q0 188 113 298.5t291 110.5q177 0 288.5 -106.5t111.5 -301.5q0 -179 -105 -287t-297 -108q-190 0 -296 105.5t-106 288.5zM164 377q0 -144 81.5 -232t221.5 -88q149 0 226 88.5t77 234.5q0 152 -80.5 242
t-220.5 90q-142 0 -223.5 -93.5t-81.5 -241.5z" />
    <glyph glyph-name="multiply" unicode="&#xd7;" horiz-adv-x="565" 
d="M80 223l151 150l-151 152l51 52l151 -152l152 152l51 -52l-151 -151l151 -151l-52 -51l-150 150l-151 -150z" />
    <glyph glyph-name="Oslash" unicode="&#xd8;" horiz-adv-x="934" 
d="M224 171l444 472q-77 69 -199 69q-142 0 -223.5 -93.5t-81.5 -241.5q0 -123 60 -206zM710 596l-442 -472q78 -67 199 -67q149 0 226 88.5t77 234.5q0 130 -60 216zM773 663q96 -107 96 -285q0 -179 -105 -287t-297 -108q-158 0 -261 75l-20 -22l-42 -44l-20 -22l-48 43
l83 88q-94 105 -94 276q0 188 113 298.5t291 110.5q154 0 258 -80l88 94l47 -42z" />
    <glyph glyph-name="Ugrave" unicode="&#xd9;" horiz-adv-x="866" 
d="M425 825l-166 129h144l93 -129h-71zM433 -17q-103 0 -171 20.5t-107 65.5t-54.5 106.5t-15.5 151.5v441h95v-474q0 -119 59 -178t194 -59t194 59t59 178v474h95v-441q0 -90 -15.5 -151.5t-54.5 -106.5t-107 -65.5t-171 -20.5z" />
    <glyph glyph-name="Uacute" unicode="&#xda;" horiz-adv-x="866" 
d="M444 825h-71l93 129h144zM433 -17q-103 0 -171 20.5t-107 65.5t-54.5 106.5t-15.5 151.5v441h95v-474q0 -119 59 -178t194 -59t194 59t59 178v474h95v-441q0 -90 -15.5 -151.5t-54.5 -106.5t-107 -65.5t-171 -20.5z" />
    <glyph glyph-name="Ucircumflex" unicode="&#xdb;" horiz-adv-x="866" 
d="M255 825l134 140h100l135 -140h-65l-120 82l-120 -82h-64zM433 -17q-103 0 -171 20.5t-107 65.5t-54.5 106.5t-15.5 151.5v441h95v-474q0 -119 59 -178t194 -59t194 59t59 178v474h95v-441q0 -90 -15.5 -151.5t-54.5 -106.5t-107 -65.5t-171 -20.5z" />
    <glyph glyph-name="Udieresis" unicode="&#xdc;" horiz-adv-x="866" 
d="M272 824v93h109v-93h-109zM506 824v93h108v-93h-108zM433 -17q-103 0 -171 20.5t-107 65.5t-54.5 106.5t-15.5 151.5v441h95v-474q0 -119 59 -178t194 -59t194 59t59 178v474h95v-441q0 -90 -15.5 -151.5t-54.5 -106.5t-107 -65.5t-171 -20.5z" />
    <glyph glyph-name="Yacute" unicode="&#xdd;" horiz-adv-x="752" 
d="M416 809h-71l93 129h144zM329 0v327l-320 441h116l255 -360l252 360h107l-315 -440v-328h-95z" />
    <glyph glyph-name="Thorn" unicode="&#xde;" horiz-adv-x="769" 
d="M92 0v768h95v-158h234q156 0 228.5 -52.5t72.5 -175.5q0 -114 -79.5 -167t-239.5 -53h-216v-162h-95zM187 236h231q113 0 159 35t46 113q0 80 -43.5 116t-146.5 36h-246v-300z" />
    <glyph glyph-name="germandbls" unicode="&#xdf;" horiz-adv-x="705" 
d="M424 -12q-131 0 -189 71l40 58q53 -62 148 -62q69 0 110 27t41 79q0 67 -114 98q-104 29 -134 46q-57 33 -57 96q0 18 3.5 33.5t12 28.5t15 21.5t21.5 18.5t21.5 14.5t25 14t23.5 12.5q66 37 66 85q0 87 -137 87q-143 0 -143 -170v-546h-90v552q0 115 64.5 172t170.5 57
q220 0 220 -152q0 -76 -106 -131q-31 -16 -42.5 -22.5t-25.5 -22t-14 -33.5q0 -32 24 -45.5t108 -37.5q34 -9 59.5 -20t56 -30t47.5 -49.5t17 -69.5q0 -89 -69.5 -134.5t-172.5 -45.5z" />
    <glyph glyph-name="agrave" unicode="&#xe0;" horiz-adv-x="683" 
d="M334 581l-166 129h144l93 -129h-71zM280 55q202 0 202 131v96q-33 -26 -162 -39q-91 -9 -130.5 -32t-39.5 -69q0 -87 130 -87zM265 -12q-100 0 -154 39t-54 108t59 109t163 51q102 10 142 20t60 28v30q0 54 -34.5 78t-116.5 24q-149 0 -149 -90q0 -15 8 -29l-90 -8
q-13 20 -13 45q0 62 64.5 102t182.5 40q131 0 185.5 -41t54.5 -150v-238q0 -30 12 -41.5t40 -11.5q14 0 29 6l10 -45q-31 -23 -81 -23q-82 0 -98 84q-27 -40 -75.5 -63.5t-144.5 -23.5z" />
    <glyph glyph-name="aacute" unicode="&#xe1;" horiz-adv-x="683" 
d="M362 582h-71l93 129h144zM280 55q202 0 202 131v96q-33 -26 -162 -39q-91 -9 -130.5 -32t-39.5 -69q0 -87 130 -87zM265 -12q-100 0 -154 39t-54 108t59 109t163 51q102 10 142 20t60 28v30q0 54 -34.5 78t-116.5 24q-149 0 -149 -90q0 -15 8 -29l-90 -8q-13 20 -13 45
q0 62 64.5 102t182.5 40q131 0 185.5 -41t54.5 -150v-238q0 -30 12 -41.5t40 -11.5q14 0 29 6l10 -45q-31 -23 -81 -23q-82 0 -98 84q-27 -40 -75.5 -63.5t-144.5 -23.5z" />
    <glyph glyph-name="acircumflex" unicode="&#xe2;" horiz-adv-x="683" 
d="M148 571l134 140h100l135 -140h-65l-120 82l-120 -82h-64zM280 55q202 0 202 131v96q-33 -26 -162 -39q-91 -9 -130.5 -32t-39.5 -69q0 -87 130 -87zM265 -12q-100 0 -154 39t-54 108t59 109t163 51q102 10 142 20t60 28v30q0 54 -34.5 78t-116.5 24q-149 0 -149 -90
q0 -15 8 -29l-90 -8q-13 20 -13 45q0 62 64.5 102t182.5 40q131 0 185.5 -41t54.5 -150v-238q0 -30 12 -41.5t40 -11.5q14 0 29 6l10 -45q-31 -23 -81 -23q-82 0 -98 84q-27 -40 -75.5 -63.5t-144.5 -23.5z" />
    <glyph glyph-name="atilde" unicode="&#xe3;" horiz-adv-x="683" 
d="M417 597q-37 0 -107 38q-52 29 -74 29q-37 0 -37 -35l3 -25h-43q-13 17 -13 42q0 40 23 63.5t64 23.5q36 0 96 -33q58 -31 82 -31q17 0 28.5 10.5t11.5 27.5l-2 20h44q11 -18 11 -41q0 -41 -22.5 -65t-64.5 -24zM280 55q202 0 202 131v96q-33 -26 -162 -39
q-91 -9 -130.5 -32t-39.5 -69q0 -87 130 -87zM265 -12q-100 0 -154 39t-54 108t59 109t163 51q102 10 142 20t60 28v30q0 54 -34.5 78t-116.5 24q-149 0 -149 -90q0 -15 8 -29l-90 -8q-13 20 -13 45q0 62 64.5 102t182.5 40q131 0 185.5 -41t54.5 -150v-238q0 -30 12 -41.5
t40 -11.5q14 0 29 6l10 -45q-31 -23 -81 -23q-82 0 -98 84q-27 -40 -75.5 -63.5t-144.5 -23.5z" />
    <glyph glyph-name="adieresis" unicode="&#xe4;" horiz-adv-x="683" 
d="M162 598v93h109v-93h-109zM396 598v93h108v-93h-108zM280 55q202 0 202 131v96q-33 -26 -162 -39q-91 -9 -130.5 -32t-39.5 -69q0 -87 130 -87zM265 -12q-100 0 -154 39t-54 108t59 109t163 51q102 10 142 20t60 28v30q0 54 -34.5 78t-116.5 24q-149 0 -149 -90
q0 -15 8 -29l-90 -8q-13 20 -13 45q0 62 64.5 102t182.5 40q131 0 185.5 -41t54.5 -150v-238q0 -30 12 -41.5t40 -11.5q14 0 29 6l10 -45q-31 -23 -81 -23q-82 0 -98 84q-27 -40 -75.5 -63.5t-144.5 -23.5z" />
    <glyph glyph-name="aring" unicode="&#xe5;" horiz-adv-x="683" 
d="M336 588q-47 0 -79 29.5t-32 73.5t32 74.5t79 30.5q48 0 79.5 -30t31.5 -75q0 -44 -31.5 -73.5t-79.5 -29.5zM336 639q23 0 40 15.5t17 36.5q0 22 -17 38.5t-40 16.5q-22 0 -38.5 -16.5t-16.5 -38.5t16 -37t39 -15zM280 55q202 0 202 131v96q-33 -26 -162 -39
q-91 -9 -130.5 -32t-39.5 -69q0 -87 130 -87zM265 -12q-100 0 -154 39t-54 108t59 109t163 51q102 10 142 20t60 28v30q0 54 -34.5 78t-116.5 24q-149 0 -149 -90q0 -15 8 -29l-90 -8q-13 20 -13 45q0 62 64.5 102t182.5 40q131 0 185.5 -41t54.5 -150v-238q0 -30 12 -41.5
t40 -11.5q14 0 29 6l10 -45q-31 -23 -81 -23q-82 0 -98 84q-27 -40 -75.5 -63.5t-144.5 -23.5z" />
    <glyph glyph-name="ae" unicode="&#xe6;" horiz-adv-x="1114" 
d="M523 115q-55 -127 -258 -127q-100 0 -154 39t-54 108t59 109t163 51q102 10 142 20t60 28v30q0 54 -34.5 78t-116.5 24q-149 0 -149 -90q0 -15 8 -29l-90 -8q-13 20 -13 45q0 62 64.5 102t182.5 40q91 0 143.5 -18.5t75.5 -63.5q86 88 233 88q127 0 199 -63.5t72 -157.5
q0 -30 -11 -76h-475q10 -187 217 -187q88 0 134 37t41 86l79 -7q4 -12 4 -25q0 -58 -68 -109t-195 -51q-193 0 -259 127zM573 307h381q3 12 3 23q0 67 -43 106.5t-130 39.5q-91 0 -144.5 -46.5t-66.5 -122.5zM280 55q202 0 202 131v96q-33 -26 -162 -39q-91 -9 -130.5 -32
t-39.5 -69q0 -87 130 -87z" />
    <glyph glyph-name="ccedilla" unicode="&#xe7;" horiz-adv-x="681" 
d="M357 -12q-136 0 -216.5 74t-80.5 205q0 134 86 204t215 70q120 0 185 -45t65 -117q0 -21 -4 -33l-89 -3q2 5 2 22q-5 111 -161 111q-92 0 -148 -50.5t-56 -153.5q0 -106 57.5 -161.5t144.5 -55.5q90 0 139.5 33.5t49.5 92.5q0 23 -4 38l75 6q8 -26 8 -58
q0 -75 -69.5 -127t-198.5 -52zM341 -220q-106 0 -159 50l35 43q41 -37 119 -37q36 0 56 12.5t20 30.5q0 36 -62 36q-41 0 -62 -7l26 58q22 5 53 5q60 0 94 -23.5t34 -66.5q0 -45 -40.5 -73t-113.5 -28z" />
    <glyph glyph-name="egrave" unicode="&#xe8;" horiz-adv-x="698" 
d="M355 581l-166 129h144l93 -129h-71zM366 -12q-146 0 -226 73t-80 195q0 126 85.5 205.5t223.5 79.5q127 0 199 -63.5t72 -157.5q0 -30 -11 -76h-475q6 -97 64.5 -142t152.5 -45q88 0 134 37t41 86l79 -7q4 -12 4 -25q0 -58 -68 -109t-195 -51zM157 307h381q3 12 3 23
q0 67 -43 106.5t-130 39.5q-91 0 -144.5 -46.5t-66.5 -122.5z" />
    <glyph glyph-name="eacute" unicode="&#xe9;" horiz-adv-x="698" 
d="M393 581h-71l93 129h144zM366 -12q-146 0 -226 73t-80 195q0 126 85.5 205.5t223.5 79.5q127 0 199 -63.5t72 -157.5q0 -30 -11 -76h-475q6 -97 64.5 -142t152.5 -45q88 0 134 37t41 86l79 -7q4 -12 4 -25q0 -58 -68 -109t-195 -51zM157 307h381q3 12 3 23
q0 67 -43 106.5t-130 39.5q-91 0 -144.5 -46.5t-66.5 -122.5z" />
    <glyph glyph-name="ecircumflex" unicode="&#xea;" horiz-adv-x="698" 
d="M184 571l134 140h100l135 -140h-65l-120 82l-120 -82h-64zM366 -12q-146 0 -226 73t-80 195q0 126 85.5 205.5t223.5 79.5q127 0 199 -63.5t72 -157.5q0 -30 -11 -76h-475q6 -97 64.5 -142t152.5 -45q88 0 134 37t41 86l79 -7q4 -12 4 -25q0 -58 -68 -109t-195 -51z
M157 307h381q3 12 3 23q0 67 -43 106.5t-130 39.5q-91 0 -144.5 -46.5t-66.5 -122.5z" />
    <glyph glyph-name="edieresis" unicode="&#xeb;" horiz-adv-x="698" 
d="M186 598v93h109v-93h-109zM420 598v93h108v-93h-108zM366 -12q-146 0 -226 73t-80 195q0 126 85.5 205.5t223.5 79.5q127 0 199 -63.5t72 -157.5q0 -30 -11 -76h-475q6 -97 64.5 -142t152.5 -45q88 0 134 37t41 86l79 -7q4 -12 4 -25q0 -58 -68 -109t-195 -51zM157 307
h381q3 12 3 23q0 67 -43 106.5t-130 39.5q-91 0 -144.5 -46.5t-66.5 -122.5z" />
    <glyph glyph-name="igrave" unicode="&#xec;" horiz-adv-x="274" 
d="M107 598l-166 129h144l93 -129h-71zM92 0v524h90v-524h-90z" />
    <glyph glyph-name="iacute" unicode="&#xed;" horiz-adv-x="274" 
d="M168 598h-71l93 129h144zM92 0v524h90v-524h-90z" />
    <glyph glyph-name="icircumflex" unicode="&#xee;" horiz-adv-x="274" 
d="M-44 588l134 140h100l135 -140h-65l-120 82l-120 -82h-64zM92 0v524h90v-524h-90z" />
    <glyph glyph-name="idieresis" unicode="&#xef;" horiz-adv-x="274" 
d="M-18 598v93h109v-93h-109zM176 598v93h108v-93h-108zM92 0v524h90v-524h-90z" />
    <glyph glyph-name="eth" unicode="&#xf0;" horiz-adv-x="720" 
d="M361 -12q-57 0 -109 16.5t-96 49t-70 87t-26 123.5q0 89 46.5 154t113 94t141.5 29q135 0 204 -81q-7 65 -38.5 122t-72.5 90l-109 -71l-33 46l87 54q-31 20 -103 20q-71 0 -119 -28l-22 57q59 31 134 31q112 0 179 -32l84 56l34 -45l-67 -45q141 -128 141 -409
q0 -87 -25.5 -151t-69.5 -99t-95 -51.5t-109 -16.5zM361 55q100 0 152.5 60t52.5 149q0 92 -52 150q-56 62 -153 62q-96 0 -151 -59.5t-55 -152.5q0 -91 54 -150t152 -59z" />
    <glyph glyph-name="ntilde" unicode="&#xf1;" horiz-adv-x="688" 
d="M451 598q-37 0 -107 38q-52 29 -74 29q-37 0 -37 -35l3 -25h-43q-13 17 -13 42q0 40 23 63.5t64 23.5q36 0 96 -33q58 -31 82 -31q17 0 28.5 10.5t11.5 27.5l-2 20h44q11 -18 11 -41q0 -41 -22.5 -65t-64.5 -24zM87 0v524h90v-90q27 50 81.5 75.5t125.5 25.5
q104 0 162.5 -43.5t58.5 -150.5v-341h-91v312q0 89 -37 122.5t-122 33.5q-82 0 -130 -54.5t-48 -130.5v-283h-90z" />
    <glyph glyph-name="ograve" unicode="&#xf2;" horiz-adv-x="720" 
d="M352 581l-166 129h144l93 -129h-71zM60 264q0 89 46.5 154t113 94t141.5 29q54 0 106 -17.5t96 -50t70.5 -87t26.5 -122.5q0 -69 -26 -123.5t-69 -87t-95 -49t-109 -16.5t-109 16.5t-96 49t-70 87t-26 123.5zM155 264q0 -91 54 -150t152 -59q100 0 152.5 60t52.5 149
q0 94 -55 153t-150 59q-96 0 -151 -59.5t-55 -152.5z" />
    <glyph glyph-name="oacute" unicode="&#xf3;" horiz-adv-x="720" 
d="M396 582h-71l93 129h144zM60 264q0 89 46.5 154t113 94t141.5 29q54 0 106 -17.5t96 -50t70.5 -87t26.5 -122.5q0 -69 -26 -123.5t-69 -87t-95 -49t-109 -16.5t-109 16.5t-96 49t-70 87t-26 123.5zM155 264q0 -91 54 -150t152 -59q100 0 152.5 60t52.5 149q0 94 -55 153
t-150 59q-96 0 -151 -59.5t-55 -152.5z" />
    <glyph glyph-name="ocircumflex" unicode="&#xf4;" horiz-adv-x="720" 
d="M174 571l134 140h100l135 -140h-65l-120 82l-120 -82h-64zM60 264q0 89 46.5 154t113 94t141.5 29q54 0 106 -17.5t96 -50t70.5 -87t26.5 -122.5q0 -69 -26 -123.5t-69 -87t-95 -49t-109 -16.5t-109 16.5t-96 49t-70 87t-26 123.5zM155 264q0 -91 54 -150t152 -59
q100 0 152.5 60t52.5 149q0 94 -55 153t-150 59q-96 0 -151 -59.5t-55 -152.5z" />
    <glyph glyph-name="otilde" unicode="&#xf5;" horiz-adv-x="720" 
d="M444 598q-37 0 -107 38q-52 29 -74 29q-37 0 -37 -35l3 -25h-43q-13 17 -13 42q0 40 23 63.5t64 23.5q36 0 96 -33q58 -31 82 -31q17 0 28.5 10.5t11.5 27.5l-2 20h44q11 -18 11 -41q0 -41 -22.5 -65t-64.5 -24zM60 264q0 89 46.5 154t113 94t141.5 29q54 0 106 -17.5
t96 -50t70.5 -87t26.5 -122.5q0 -69 -26 -123.5t-69 -87t-95 -49t-109 -16.5t-109 16.5t-96 49t-70 87t-26 123.5zM155 264q0 -91 54 -150t152 -59q100 0 152.5 60t52.5 149q0 94 -55 153t-150 59q-96 0 -151 -59.5t-55 -152.5z" />
    <glyph glyph-name="odieresis" unicode="&#xf6;" horiz-adv-x="720" 
d="M189 598v93h109v-93h-109zM423 598v93h108v-93h-108zM60 264q0 89 46.5 154t113 94t141.5 29q54 0 106 -17.5t96 -50t70.5 -87t26.5 -122.5q0 -69 -26 -123.5t-69 -87t-95 -49t-109 -16.5t-109 16.5t-96 49t-70 87t-26 123.5zM155 264q0 -91 54 -150t152 -59
q100 0 152.5 60t52.5 149q0 94 -55 153t-150 59q-96 0 -151 -59.5t-55 -152.5z" />
    <glyph glyph-name="oslash" unicode="&#xf8;" horiz-adv-x="720" 
d="M197 129l290 309q-52 38 -126 38q-96 0 -151 -59.5t-55 -152.5q0 -81 42 -135zM526 399l-289 -309q51 -35 124 -35q100 0 152.5 60t52.5 149q0 80 -40 135zM581 458q79 -77 79 -194q0 -69 -26 -123.5t-69 -87t-95 -49t-109 -16.5q-98 0 -177 46l-60 -64l-41 37l57 61
q-80 72 -80 196q0 89 46.5 154t113 94t141.5 29q97 0 176 -49l57 61l41 -37z" />
    <glyph glyph-name="ugrave" unicode="&#xf9;" horiz-adv-x="688" 
d="M342 581l-166 129h144l93 -129h-71zM601 0h-91v99q-29 -56 -78 -83.5t-130 -27.5q-98 0 -158.5 49t-60.5 158v329h91v-309q0 -90 34.5 -125t118.5 -35t133.5 56t49.5 133v280h91v-524z" />
    <glyph glyph-name="uacute" unicode="&#xfa;" horiz-adv-x="688" 
d="M372 582h-71l93 129h144zM601 0h-91v99q-29 -56 -78 -83.5t-130 -27.5q-98 0 -158.5 49t-60.5 158v329h91v-309q0 -90 34.5 -125t118.5 -35t133.5 56t49.5 133v280h91v-524z" />
    <glyph glyph-name="ucircumflex" unicode="&#xfb;" horiz-adv-x="688" 
d="M166 571l134 140h100l135 -140h-65l-120 82l-120 -82h-64zM601 0h-91v99q-29 -56 -78 -83.5t-130 -27.5q-98 0 -158.5 49t-60.5 158v329h91v-309q0 -90 34.5 -125t118.5 -35t133.5 56t49.5 133v280h91v-524z" />
    <glyph glyph-name="udieresis" unicode="&#xfc;" horiz-adv-x="688" 
d="M177 598v93h109v-93h-109zM411 598v93h108v-93h-108zM601 0h-91v99q-29 -56 -78 -83.5t-130 -27.5q-98 0 -158.5 49t-60.5 158v329h91v-309q0 -90 34.5 -125t118.5 -35t133.5 56t49.5 133v280h91v-524z" />
    <glyph glyph-name="yacute" unicode="&#xfd;" horiz-adv-x="629" 
d="M339 582h-71l93 129h144zM607 524l-236 -548q-38 -96 -82.5 -134.5t-117.5 -38.5q-77 0 -116 27.5t-39 75.5q0 20 11 39l83 3q-8 -14 -8 -32q0 -50 65 -50q71 0 109 87l13 30l-264 541h101l207 -430l182 430h92z" />
    <glyph glyph-name="thorn" unicode="&#xfe;" horiz-adv-x="727" 
d="M379 55q83 0 138.5 53t55.5 150q0 110 -54 160t-138 50q-88 0 -146.5 -54t-58.5 -153q0 -100 59 -153t144 -53zM87 -185v953h90v-342q26 47 86.5 78t124.5 31q124 0 201.5 -69t77.5 -209q0 -126 -81 -197.5t-199 -71.5q-73 0 -129 29.5t-81 69.5v-272h-90z" />
    <glyph glyph-name="ydieresis" unicode="&#xff;" horiz-adv-x="629" 
d="M153 598v93h109v-93h-109zM387 598v93h108v-93h-108zM607 524l-236 -548q-38 -96 -82.5 -134.5t-117.5 -38.5q-77 0 -116 27.5t-39 75.5q0 20 11 39l83 3q-8 -14 -8 -32q0 -50 65 -50q71 0 109 87l13 30l-264 541h101l207 -430l182 430h92z" />
    <glyph glyph-name="dotlessi" unicode="&#x131;" horiz-adv-x="274" 
d="M92 0v524h90v-524h-90z" />
    <glyph glyph-name="Lslash" unicode="&#x141;" horiz-adv-x="676" 
d="M102 341v427h95v-389l238 120l36 -65l-274 -139v-217h437v-78h-532v257l-63 -32l-37 65z" />
    <glyph glyph-name="lslash" unicode="&#x142;" horiz-adv-x="274" 
d="M92 395v373h90v-331l83 48l34 -63l-117 -67v-355h-90v313l-72 -41l-32 64l17.5 10t33.5 19t38 21z" />
    <glyph glyph-name="OE" unicode="&#x152;" horiz-adv-x="1408" 
d="M467 57q149 0 226 88.5t77 234.5q0 152 -80.5 242t-220.5 90q-142 0 -223.5 -93.5t-81.5 -241.5q0 -144 81.5 -232t221.5 -88zM779 0v138q-42 -68 -122.5 -111.5t-188.5 -43.5q-190 0 -296.5 105t-106.5 288q0 186 111.5 298t291.5 112q107 0 188 -44t123 -112v138h552
v-76h-462v-245h426v-74h-426v-295h493v-78h-583z" />
    <glyph glyph-name="oe" unicode="&#x153;" horiz-adv-x="1200" 
d="M608 98q-40 -54 -106.5 -82t-140.5 -28q-57 0 -109 16.5t-96 49t-70 87t-26 123.5q0 89 46.5 154t113 94t141.5 29q73 0 141 -30.5t110 -88.5q40 56 107 87.5t152 31.5q127 0 199 -63.5t72 -157.5q0 -30 -11 -76h-475q10 -187 217 -187q88 0 134 37t41 86l79 -7
q4 -12 4 -25q0 -58 -68 -109t-195 -51q-180 0 -260 110zM361 55q100 0 152.5 60t52.5 149q0 94 -55 153t-150 59q-96 0 -151 -59.5t-55 -152.5q0 -91 54 -150t152 -59zM659 307h381q3 12 3 23q0 67 -43 106.5t-130 39.5q-91 0 -144.5 -46.5t-66.5 -122.5z" />
    <glyph glyph-name="Scaron" unicode="&#x160;" horiz-adv-x="789" 
d="M563 972l-134 -140h-100l-135 140h65l120 -82l120 82h64zM414 -17q-160 0 -253.5 62.5t-88.5 183.5l96 5q-7 -78 62 -127t178 -49q215 0 215 147q0 66 -56.5 99t-190.5 56q-160 28 -226.5 76t-66.5 145q0 96 77.5 150t212.5 54q145 0 224.5 -54.5t84.5 -158.5l-88 -11
q-15 153 -225 153q-85 0 -137.5 -33t-52.5 -94q0 -62 48 -91t179 -52q61 -11 101.5 -21t84.5 -28t69.5 -41.5t42 -60.5t16.5 -85q0 -225 -306 -225z" />
    <glyph glyph-name="scaron" unicode="&#x161;" horiz-adv-x="628" 
d="M499 722l-134 -140h-100l-135 140h65l120 -82l120 82h64zM571 151q0 -163 -260 -163q-119 0 -178 41.5t-59 104.5q0 7 2 23l84 7q-1 -5 -1 -16q0 -42 37 -68t119 -26q78 0 121 22.5t43 64.5q0 39 -32.5 55t-162.5 44q-111 24 -157.5 56.5t-46.5 91.5q0 68 61 110.5
t171 42.5q123 0 178 -36t54 -94q0 -18 -4 -33l-82 -7q5 17 5 28q-2 78 -152 78q-74 0 -107 -22t-33 -55q0 -32 31 -50.5t140 -39.5q120 -23 174.5 -55.5t54.5 -103.5z" />
    <glyph glyph-name="Ydieresis" unicode="&#x178;" horiz-adv-x="752" 
d="M209 825v93h109v-93h-109zM443 825v93h108v-93h-108zM329 0v327l-320 441h116l255 -360l252 360h107l-315 -440v-328h-95z" />
    <glyph glyph-name="Zcaron" unicode="&#x17d;" horiz-adv-x="724" 
d="M573 958l-134 -140h-100l-135 140h65l120 -82l120 82h64zM76 0v72l477 620h-472v76h586v-75l-477 -615h479v-78h-593z" />
    <glyph glyph-name="zcaron" unicode="&#x17e;" horiz-adv-x="636" 
d="M496 722l-134 -140h-100l-135 140h65l120 -82l120 82h64zM572 0h-521v65l397 390h-378v69h497v-62l-401 -390h406v-72z" />
    <glyph glyph-name="florin" unicode="&#x192;" horiz-adv-x="576" 
d="M85 -182q-134 -3 -134 95q0 31 17 48l77 8q-13 -19 -13 -47q0 -37 49 -37q42 0 69 34t36 97l50 353h-116v62h124l25 184q23 171 190 171q62 0 91.5 -29t28.5 -69q-2 -35 -16 -54l-78 -7q13 20 13 46q0 47 -53 47q-39 0 -57 -25.5t-27 -90.5l-24 -173h146v-62h-155
l-48 -346q-29 -202 -195 -205z" />
    <glyph glyph-name="circumflex" unicode="&#x2c6;" 
d="M115 588l134 140h100l135 -140h-65l-120 82l-120 -82h-64z" />
    <glyph glyph-name="caron" unicode="&#x2c7;" 
d="M483 738l-134 -140h-100l-135 140h65l120 -82l120 82h64z" />
    <glyph glyph-name="breve" unicode="&#x2d8;" 
d="M301 588q-71 0 -124.5 41.5t-69.5 107.5h57q40 -80 136 -80q95 0 135 80h57q-16 -68 -68.5 -108.5t-122.5 -40.5z" />
    <glyph glyph-name="dotaccent" unicode="&#x2d9;" 
d="M241 598v102h116v-102h-116z" />
    <glyph glyph-name="ring" unicode="&#x2da;" 
d="M300 588q-47 0 -79 29.5t-32 73.5t32 74.5t79 30.5q48 0 79.5 -30t31.5 -75q0 -44 -31.5 -73.5t-79.5 -29.5zM300 639q23 0 40 15.5t17 36.5q0 22 -17 38.5t-40 16.5q-22 0 -38.5 -16.5t-16.5 -38.5t16 -37t39 -15z" />
    <glyph glyph-name="ogonek" unicode="&#x2db;" 
d="M326 -200q-65 0 -96 25.5t-31 64.5t35 69t71 41h78q-49 -15 -80.5 -41.5t-31.5 -59.5q0 -41 54 -41q22 0 35.5 10t15.5 23q2 17 -4 23l66 -4q7 -12 7 -28q0 -31 -32 -56.5t-87 -25.5z" />
    <glyph glyph-name="tilde" unicode="&#x2dc;" 
d="M392 591q-37 0 -107 38q-52 29 -74 29q-37 0 -37 -35l3 -25h-43q-13 17 -13 42q0 40 23 63.5t64 23.5q36 0 96 -33q58 -31 82 -31q17 0 28.5 10.5t11.5 27.5l-2 20h44q11 -18 11 -41q0 -41 -22.5 -65t-64.5 -24z" />
    <glyph glyph-name="hungarumlaut" unicode="&#x2dd;" 
d="M258 598h-71l93 129h144zM451 598h-71l93 129h144z" />
    <glyph glyph-name="endash" unicode="&#x2013;" horiz-adv-x="714" 
d="M46 284v82h622v-82h-622z" />
    <glyph glyph-name="emdash" unicode="&#x2014;" horiz-adv-x="994" 
d="M46 284v82h902v-82h-902z" />
    <glyph glyph-name="quoteleft" unicode="&#x2018;" horiz-adv-x="287" 
d="M83 542v115q0 53 29.5 84t99.5 40l11 -35q-47 -8 -64 -30.5t-12 -62.5h64v-111h-128z" />
    <glyph glyph-name="quoteright" unicode="&#x2019;" horiz-adv-x="287" 
d="M85 529l-11 35q47 8 64 31t12 62h-64v111h128v-115q0 -53 -29.5 -84t-99.5 -40z" />
    <glyph glyph-name="quotesinglbase" unicode="&#x201a;" horiz-adv-x="287" 
d="M75 -128l-11 35q47 8 64 31t12 62h-64v111h128v-115q0 -53 -29.5 -84t-99.5 -40z" />
    <glyph glyph-name="quotedblleft" unicode="&#x201c;" horiz-adv-x="492" 
d="M83 542v115q0 53 29.5 84t99.5 40l11 -35q-47 -8 -64 -31t-12 -62h64v-111h-128zM288 542v115q0 53 29.5 84t99.5 40l11 -35q-47 -8 -64 -31t-12 -62h64v-111h-128z" />
    <glyph glyph-name="quotedblright" unicode="&#x201d;" horiz-adv-x="492" 
d="M85 529l-11 35q47 8 64 31t12 62h-64v111h128v-115q0 -53 -29.5 -84t-99.5 -40zM290 529l-11 35q47 8 64 31t12 62h-64v111h128v-115q0 -53 -29.5 -84t-99.5 -40z" />
    <glyph glyph-name="quotedblbase" unicode="&#x201e;" horiz-adv-x="492" 
d="M75 -128l-11 35q47 8 64 31t12 62h-64v111h128v-115q0 -53 -29.5 -84t-99.5 -40zM280 -128l-11 35q47 8 64 31t12 62h-64v111h128v-115q0 -53 -29.5 -84t-99.5 -40z" />
    <glyph glyph-name="dagger" unicode="&#x2020;" horiz-adv-x="623" 
d="M276 -144l-19 551l20 94l-77 -15h-132v70h132l77 -15l-15 87v140h89v-140l-15 -87l77 15h142v-70h-142l-77 15l20 -94l-19 -551h-61z" />
    <glyph glyph-name="daggerdbl" unicode="&#x2021;" horiz-adv-x="623" 
d="M262 -144v140l15 87l-77 -15h-132v70h132l77 -15l-21 194l21 184l-77 -15h-132v70h132l77 -15l-15 87v140h89v-140l-15 -87l77 15h142v-70h-142l-77 15l21 -184l-21 -194l77 15h142v-70h-142l-77 15l15 -87v-140h-89z" />
    <glyph glyph-name="bullet" unicode="&#x2022;" horiz-adv-x="566" 
d="M283 546q83 0 142 -59t59 -142t-59 -141.5t-142 -58.5t-142 58.5t-59 141.5t59 142t142 59z" />
    <glyph glyph-name="ellipsis" unicode="&#x2026;" horiz-adv-x="858" 
d="M54 0v114h128v-114h-128zM365 0v114h128v-114h-128zM676 0v114h128v-114h-128z" />
    <glyph glyph-name="perthousand" unicode="&#x2030;" horiz-adv-x="1406" 
d="M239 374q-88 0 -133.5 52t-45.5 142q0 94 44 153.5t135 59.5q180 0 180 -213q0 -88 -46.5 -141t-133.5 -53zM143 1l595 768h85l-594 -768h-86zM236 433q107 0 107 135q0 158 -106 158q-50 0 -76 -41t-26 -117q0 -67 27 -101t74 -34zM727 -10q-88 0 -133.5 52t-45.5 142
q0 93 44 153t135 60q180 0 180 -213q0 -89 -46.5 -141.5t-133.5 -52.5zM1165 -10q-88 0 -133.5 52t-45.5 142q0 93 44 153t135 60q180 0 180 -213q0 -89 -46.5 -141.5t-133.5 -52.5zM724 48q107 0 107 136q0 157 -106 157q-102 0 -102 -157q0 -68 27 -102t74 -34zM1162 48
q107 0 107 136q0 157 -106 157q-102 0 -102 -157q0 -68 27 -102t74 -34z" />
    <glyph glyph-name="guilsinglleft" unicode="&#x2039;" horiz-adv-x="531" 
d="M445 35l-362 200v80l362 198v-77l-285 -161l285 -163v-77z" />
    <glyph glyph-name="guilsinglright" unicode="&#x203a;" horiz-adv-x="531" 
d="M86 35v77l285 163l-285 161v77l362 -198v-80z" />
    <glyph glyph-name="fraction" unicode="&#x2044;" horiz-adv-x="140" 
d="M-264 0l593 768h67l-591 -768h-69z" />
    <glyph glyph-name="Euro" unicode="&#x20ac;" horiz-adv-x="784" 
d="M115 342q-1 10 -1 31q0 9 0.5 27t0.5 26h-73v62h80q22 139 103 218t227 79q80 0 137.5 -21t87 -56t42.5 -70.5t13 -73.5t-3 -48l-90 -10q3 15 3 45q0 63 -44.5 111.5t-145.5 48.5q-201 0 -236 -223h313v-62h-319q-1 -15 -1 -47q0 -25 1 -37h319v-62h-315
q13 -112 68 -167.5t170 -55.5q90 0 144.5 49t54.5 131q0 17 -2 25l83 -8q3 -15 3 -28q0 -106 -71.5 -174.5t-211.5 -68.5q-293 0 -332 297h-78v62h73z" />
    <glyph glyph-name="uni2117" unicode="&#x2117;" horiz-adv-x="921" 
d="M460 -44q-170 0 -290.5 121.5t-120.5 293.5t120.5 293.5t290.5 121.5t290.5 -121.5t120.5 -293.5t-120.5 -293.5t-290.5 -121.5zM460 1q152 0 257.5 108t105.5 262t-105.5 262t-257.5 108q-151 0 -256.5 -108.5t-105.5 -261.5t105.5 -261.5t256.5 -108.5zM318 160v416
h178q175 0 175 -125q0 -120 -183 -120h-102v-171h-68zM386 376h106q109 0 109 74q0 44 -27.5 62t-82.5 18h-105v-154z" />
    <glyph glyph-name="trademark" unicode="&#x2122;" horiz-adv-x="828" 
d="M181 477v251h-97v40h255v-40h-97v-251h-61zM391 477v291h93l73 -241l73 241h87v-291h-52v251l-78 -251h-62l-82 251v-251h-52z" />
    <glyph glyph-name="minus" unicode="&#x2212;" horiz-adv-x="660" 
d="M80 338v73h500v-73h-500z" />
    <glyph glyph-name="radical" unicode="&#x221a;" horiz-adv-x="835" 
d="M260 -51q-14 22 -102 139.5t-100 126.5l92 38q7 -5 37 -56t62 -107.5t37 -63.5q21 83 72.5 207t91.5 196q140 251 254 375l20 5q19 5 45.5 11.5t39.5 10.5q-62 -62 -143 -182.5t-143 -233.5q-142 -269 -184 -442z" />
    <glyph glyph-name="apple" unicode="&#xf8ff;" horiz-adv-x="733" 
d="M367 33q-129 0 -220.5 91t-91.5 220t92 220.5t220 91.5q129 0 220.5 -91.5t91.5 -220.5t-91.5 -220t-220.5 -91zM246 123l141 97l131 -90l20 14l-13 156l89 115l-9 14l-146 36l-89 137l-17 2l-86 -154l-147 -39l2 -15l126 -131l-24 -133z" />
    <glyph glyph-name="nbspace" horiz-adv-x="165" 
 />
    </font>
</defs>
</svg>
