<?xml version="1.0" standalone="no"?>
<!DOCTYPE svg PUBLIC "-//W3C//DTD SVG 1.1//EN" "http://www.w3.org/Graphics/SVG/1.1/DTD/svg11.dtd" >
<svg xmlns="http://www.w3.org/2000/svg">
<metadata>Generated by IcoMoon</metadata>
<defs>
<font id="inside" horiz-adv-x="1024">
<font-face units-per-em="1024" ascent="960" descent="-64" />
<missing-glyph horiz-adv-x="1024" />
<glyph unicode="&#x20;" horiz-adv-x="512" d="" />
<glyph unicode="&#xe900;" glyph-name="arrow-down" d="M510.665 212.736l496.384 496.402 12.946-12.946-509.33-509.312-509.33 509.312 12.946 12.946z" />
<glyph unicode="&#xe901;" glyph-name="arrow-left" horiz-adv-x="539" d="M37.026 448l487.693-487.676-12.719-12.719-500.377 500.395 500.377 500.395 12.719-12.719z" />
<glyph unicode="&#xe902;" glyph-name="arrow-right" horiz-adv-x="539" d="M499.299 448l-487.693 487.676 12.719 12.719 500.377-500.395-500.377-500.395-12.719 12.719z" />
<glyph unicode="&#xe903;" glyph-name="arrow-up" d="M510.665 683.264l-496.384-496.402-12.946 12.946 509.33 509.312 509.33-509.312-12.946-12.946z" />
<glyph unicode="&#xe904;" glyph-name="burger" d="M0 727.273h1024v-36.571h-1024v36.571zM0 471.273h1024v-36.571h-1024v36.571zM0 215.273h1024v-36.571h-1024v36.571z" />
<glyph unicode="&#xe905;" glyph-name="facebook" d="M983.040 960h-942.080c-22.656 0-40.96-18.304-40.96-40.96v-942.080c0-22.656 18.304-40.96 40.96-40.96h942.080c22.656 0 40.96 18.304 40.96 40.96v942.080c0 22.656-18.304 40.96-40.96 40.96zM864.768 661.12h-81.792c-64.128 0-76.544-30.464-76.544-75.264v-98.688h153.088l-19.968-154.496h-133.12v-396.672h-159.616v396.544h-133.504v154.624h133.504v113.92c0 132.224 80.768 204.288 198.784 204.288 56.576 0 105.088-4.224 119.296-6.144v-138.112h-0.128z" />
<glyph unicode="&#xe906;" glyph-name="instagram" d="M512.090 710.566c-69.649 0.082-136.468-27.557-185.707-76.816s-76.853-116.088-76.744-185.737c-0.109-69.649 27.504-136.478 76.744-185.737s116.058-76.898 185.707-76.816c69.667-0.109 136.512 27.518 185.774 76.78s76.889 116.107 76.78 185.774c0.109 69.658-27.511 136.495-76.762 185.756s-116.083 76.893-185.741 76.798h-0.051zM512.090 277.312c-94.165 0.225-170.43 76.535-170.598 170.701 0.085 94.22 76.429 170.588 170.65 170.701 94.2-0.141 170.514-76.5 170.598-170.701-0.169-94.185-76.464-170.504-170.65-170.701zM846.528 721.267c0-33.997-27.392-61.235-61.184-61.235-33.819 0-61.235 27.416-61.235 61.235s27.416 61.235 61.235 61.235c33.819 0 61.235-27.416 61.235-61.235h-0.051zM1020.403 659.162c-3.891 82.022-22.63 154.624-82.688 214.528-59.904 59.904-132.506 78.643-214.528 82.739-84.48 4.762-337.92 4.762-422.4 0-81.766-3.891-154.419-22.63-214.528-82.483-60.058-59.904-78.541-132.557-82.688-214.528-4.762-84.582-4.762-337.971 0-422.554 3.891-82.022 22.63-154.624 82.688-214.528 60.109-59.904 132.506-78.592 214.528-82.739 84.48-4.762 337.92-4.762 422.4 0 82.022 3.891 154.624 22.63 214.528 82.739 59.853 59.904 78.541 132.506 82.688 214.528 4.762 84.582 4.762 337.715 0 422.298zM911.194 146.138c-17.564-44.494-52.786-79.716-97.28-97.28-67.43-26.778-227.328-20.582-301.824-20.582-74.445 0-234.598-5.939-301.773 20.582-44.494 17.564-79.716 52.786-97.28 97.28-26.778 67.43-20.582 227.379-20.582 301.875s-5.939 234.65 20.531 301.824c17.564 44.523 52.808 79.767 97.331 97.331 67.379 26.778 227.328 20.582 301.773 20.582 74.496 0 234.598 5.939 301.773-20.582 44.513-17.553 79.755-52.776 97.331-97.28 26.726-67.43 20.582-227.379 20.582-301.875s6.144-234.65-20.582-301.824v-0.051z" />
<glyph unicode="&#xe907;" glyph-name="mail" d="M921.6 652.8l-409.6-256-409.6 256v102.4l409.6-256 409.6 256v-102.4zM921.6 857.6h-819.2c-56.32 0-101.888-46.080-101.888-102.4l-0.512-614.4c0-56.32 46.080-102.4 102.4-102.4h819.2c56.32 0 102.4 46.080 102.4 102.4v614.4c0 56.32-46.080 102.4-102.4 102.4z" />
<glyph unicode="&#xe908;" glyph-name="reply" d="M398.222 648.663v227.556l-398.222-398.222 398.222-398.222v233.301c284.444 0 483.556-91.079 625.778-290.19-56.889 284.444-227.556 568.889-625.778 625.778z" />
<glyph unicode="&#xe909;" glyph-name="search" d="M779.107 556.973c0 207.703-168.377 376.080-376.080 376.080s-376.080-168.377-376.080-376.080c0-207.703 168.377-376.080 376.080-376.080 101.109 0 195.849 40.072 265.929 110.151s110.151 164.82 110.151 265.929zM1012.387-39.684l-12.703-12.703-324.447 324.447c-72.731-69.525-169.345-109.133-272.209-109.133-217.625 0-394.045 176.42-394.045 394.045s176.42 394.045 394.045 394.045c217.625 0 394.045-176.42 394.045-394.045 0-102.864-39.608-199.478-109.133-272.209l324.447-324.447zM681.659 278.341h-12.703l6.28-6.28c2.162 2.067 4.303 4.16 6.423 6.28zM681.659 291.044v-12.703c2.12 2.12 4.213 4.261 6.28 6.423l-6.28 6.28z" />
<glyph unicode="&#xe90a;" glyph-name="share" d="M477.867 652.8h-136.533l170.667 204.8 170.667-204.8h-136.533v-409.6h-68.267v409.6zM955.733 652.8h-204.8v68.267h273.067v-682.667h-1024v682.667h273.067v-68.267h-204.8v-546.133h887.467v546.133z" />
<glyph unicode="&#xe90b;" glyph-name="triangle-down" horiz-adv-x="2011" d="M0 960l1005.714-1005.714 1005.714 1005.714z" />
<glyph unicode="&#xe90c;" glyph-name="triangle-left" horiz-adv-x="530" d="M516.571 955.429l-502.857-502.857 502.857-502.857z" />
<glyph unicode="&#xe90d;" glyph-name="triangle-right" horiz-adv-x="530" d="M13.714-50.286l502.857 502.857-502.857 502.857z" />
<glyph unicode="&#xe90e;" glyph-name="triangle-up" horiz-adv-x="2011" d="M2011.429-45.714l-1005.714 1005.714-1005.714-1005.714z" />
<glyph unicode="&#xe90f;" glyph-name="twitter" d="M918.761 658.106c0.652-9.169 0.652-18.339 0.652-27.462 0-279.552-211.177-601.553-597.178-601.553-118.831 0-229.283 34.676-322.234 94.906 16.83-1.864 33.755-2.734 50.688-2.607 94.563-0.214 186.409 31.615 260.561 90.298-90.049 1.841-168.941 60.786-196.236 146.618 12.986-1.955 25.972-3.258 39.61-3.258 18.851 0 37.702 2.607 55.249 7.215-98.308 20.343-168.687 107.11-168.308 207.5v2.607c27.927-15.732 60.463-25.553 94.86-26.857-58.606 39.412-93.696 105.456-93.556 176.081 0 39.284 10.426 75.264 28.579 106.682 106.189-131.965 263.579-212.429 432.733-221.231-3.356 15.919-5.087 32.138-5.167 48.407-0.047 116.596 93.51 211.456 209.873 211.456 60.416 0 114.967-25.507 153.321-66.746 47.036 9.117 92.118 26.381 133.213 51.014-15.571-48.755-48.365-90.171-92.253-116.503 41.691 4.784 82.424 15.815 120.832 32.721-28.686-42.087-64.265-79.035-105.239-109.289z" />
<glyph unicode="&#xe910;" glyph-name="close" horiz-adv-x="1006" d="M527.98 456.959l472.585 473.134c6.832 6.902 6.832 18.018 0 24.92-6.989 6.664-17.984 6.649-24.954-0.034l-472.516-473.1-472.585 473.134c-6.989 6.617-17.931 6.617-24.92 0-6.828-6.89-6.828-17.995 0-24.886l472.619-473.168-472.585-473.134c-4.722-4.387-6.671-11.003-5.079-17.249s6.469-11.123 12.715-12.715c6.246-1.592 12.863 0.356 17.249 5.079l472.585 473.1 472.55-473.134c4.445-4.452 10.928-6.193 17.006-4.569s10.827 6.367 12.46 12.443c1.632 6.076-0.1 12.56-4.546 17.012l-472.585 473.168z" />
<glyph unicode="&#xe911;" glyph-name="message" d="M0 192v768h1024v-768h-512l-256-256v256z" />
<glyph unicode="&#xe912;" glyph-name="pinterest" d="M1024 448c0-282.857-229.143-512-512-512-52.829 0-103.657 8.052-151.552 22.9 20.852 34.071 52.038 89.833 63.581 134.191l31.837 121.809c16.71-31.791 65.443-58.833 117.248-58.833 154.438 0 265.681 142.057 265.681 318.557 0 169.1-138.1 295.657-315.625 295.657-220.905 0-338.385-148.247-338.385-309.9 0-75.124 40.029-168.681 103.796-198.377 9.775-4.561 14.895-2.513 17.175 6.796 1.629 6.982 10.333 41.891 14.243 57.996 1.479 5.161 0.155 10.721-3.491 14.662-20.852 25.833-37.795 72.89-37.795 116.829 0 112.966 85.457 222.161 231.238 222.161 125.673 0 213.876-85.644 213.876-208.291 0-138.519-70.004-234.543-161.047-234.543-50.176 0-87.971 41.519-75.776 92.486 14.429 60.928 42.356 126.604 42.356 170.543 0 39.238-21.085 72.052-64.838 72.052-51.433 0-92.719-53.062-92.719-124.276 0-45.428 15.313-75.962 15.313-75.962s-50.595-214.295-59.904-254.371c-10.333-44.218-6.191-106.543-1.862-146.991-190.371 74.519-325.353 259.91-325.353 476.905 0 282.857 229.143 512 512 512s512-229.143 512-512z" />
<glyph unicode="&#xe913;" glyph-name="views" horiz-adv-x="1564" d="M782.27 960c177.090 0 367.941-80.768 550.117-235.522 124.043-105.197 203.614-208.899 219.070-228.742l2.692-3.39c13.727-18.321 13.727-43.501 0-61.822-13.76-18.945-347.301-467.655-771.879-467.655-177.090 0-367.941 80.768-550.117 235.522-135.809 115.169-218.372 228.642-221.862 233.827-13.721 17.694-13.721 42.433 0 60.127 13.76 18.945 347.301 467.655 771.979 467.655zM782.27 770.844c-170.733-0.438-309.061-138.677-309.609-309.41 0.548-170.694 138.815-308.917 309.51-309.41 170.694 0.493 308.962 138.716 309.51 309.41-0.547 170.655-138.755 308.862-309.41 309.41zM782.27 667.741c113.474 0 206.306-92.833 206.306-206.306-0.329-113.842-92.564-206.033-206.406-206.306-113.726 0.438-205.779 92.58-206.107 206.306 0 113.474 92.733 206.306 206.306 206.306h-0.1z" />
</font>
</defs>
</svg>
